<?xml version="1.0" standalone="no"?>
<!DOCTYPE svg PUBLIC "-//W3C//DTD SVG 20010904//EN"
 "http://www.w3.org/TR/2001/REC-SVG-20010904/DTD/svg10.dtd">
<svg version="1.0" xmlns="http://www.w3.org/2000/svg"
 width="828.000000pt" height="809.000000pt" viewBox="0 0 828.000000 809.000000"
 preserveAspectRatio="xMidYMid meet">

<g transform="translate(0.000000,809.000000) scale(0.100000,-0.100000)"
fill="#000000" stroke="none">
<path d="M0 4045 l0 -4045 4140 0 4140 0 0 4045 0 4045 -4140 0 -4140 0 0
-4045z m5780 2805 c5 -73 6 -75 33 -78 27 -3 27 -4 27 -75 0 -40 3 -95 6 -124
l7 -52 -38 -3 -38 -3 1 -90 c1 -49 7 -166 13 -260 l12 -170 -28 -60 c-15 -33
-36 -78 -46 -100 l-18 -40 0 50 c0 28 7 100 16 160 10 67 16 185 17 304 2 187
1 194 -19 203 -20 9 -21 17 -20 136 0 121 1 127 21 130 20 3 21 8 16 78 -4 70
-3 76 14 72 16 -3 20 -15 24 -78z m-231 -27 c-1 -95 -1 -98 20 -96 32 4 39
-26 37 -162 l-1 -120 -72 -3 -73 -3 -2 121 c-1 66 -2 130 -2 143 -1 18 4 22
29 21 l31 -1 -4 98 c-4 96 -4 99 17 99 21 0 22 -4 20 -97z m-510 -197 c-4 -95
-3 -101 16 -102 11 -1 26 -2 33 -3 10 -1 12 -25 10 -98 l-3 -98 -27 -3 c-26
-3 -28 -6 -29 -55 0 -29 -2 -88 -5 -132 -3 -44 -2 -99 1 -123 6 -37 10 -44 36
-49 l29 -6 -1 -504 -2 -505 -34 -37 c-18 -20 -47 -57 -64 -83 -17 -27 -36 -48
-43 -48 -8 0 -11 154 -11 593 l0 592 23 3 c21 3 22 6 22 131 0 71 3 149 6 174
6 44 6 46 -22 49 l-29 3 0 100 c0 100 0 100 25 100 25 0 25 1 28 105 1 58 8
110 14 118 21 25 30 -16 27 -122z m249 -23 l3 -142 32 -3 32 -3 3 -120 3 -121
-33 -9 -33 -10 -5 -120 c-4 -98 -8 -120 -20 -120 -12 0 -15 21 -17 125 -1 109
-3 125 -18 125 -29 0 -36 31 -33 147 3 109 4 113 26 116 22 3 22 6 22 143 0
128 2 140 18 137 15 -3 17 -19 20 -145z m-490 62 c-5 -71 -4 -75 16 -75 12 0
26 -4 31 -8 6 -4 11 -62 12 -130 l2 -123 -29 -6 -30 -5 0 -145 c0 -146 -7
-183 -37 -183 -14 0 -15 18 -8 169 l7 170 -34 3 -33 3 3 90 c2 50 5 107 8 128
5 34 8 37 38 37 l32 0 -10 58 c-10 66 -5 92 20 92 14 0 16 -10 12 -75z m747
-256 c4 -12 6 -83 4 -158 l-4 -136 30 -5 30 -5 3 -241 2 -242 -35 -42 c-20
-24 -54 -74 -77 -111 -22 -38 -42 -69 -44 -69 -2 0 -4 160 -4 355 l0 355 24 0
24 0 4 148 c2 81 7 153 11 160 12 18 25 15 32 -9z m-982 -70 c11 -63 5 -246
-10 -260 -26 -26 -33 3 -33 150 0 81 3 151 7 155 15 14 28 -2 36 -45z m-515
-346 c-2 -79 -6 -98 -18 -98 -12 0 -16 19 -18 98 -3 92 -2 97 18 97 20 0 21
-5 18 -97z m1878 -106 c-134 -282 -463 -760 -801 -1162 -197 -235 -472 -511
-570 -571 -17 -11 -55 -38 -86 -61 -57 -44 -357 -203 -383 -203 -8 0 -65 -16
-126 -35 -105 -33 -120 -35 -248 -35 -222 0 -375 35 -557 126 -96 49 -184 112
-360 260 -179 151 -265 248 -265 300 0 20 28 54 44 54 6 0 35 -36 65 -80 113
-170 460 -441 660 -517 161 -61 394 -89 535 -64 325 57 732 312 1039 652 131
145 304 351 402 478 28 36 82 106 119 155 133 173 416 615 500 781 60 118 61
119 64 53 3 -49 -2 -69 -32 -131z m-1322 153 c34 -13 66 -66 66 -110 0 -46
-29 -101 -60 -117 -58 -29 -148 -5 -174 46 -18 34 -21 113 -6 141 23 43 113
64 174 40z m-237 -116 c9 -23 -18 -40 -76 -48 -75 -10 -157 -68 -208 -148
l-43 -66 0 -186 0 -186 25 0 25 0 0 -604 c0 -537 -2 -605 -16 -617 -19 -16
-126 -60 -132 -54 -2 2 -5 289 -6 637 l-1 633 30 5 30 5 5 185 c3 102 4 187 3
189 -4 5 -109 -59 -203 -124 -95 -66 -141 -88 -153 -76 -15 15 0 40 35 59 17
9 85 53 150 96 l118 79 -1 47 c-1 26 1 52 5 58 4 7 33 12 68 12 55 0 66 4 127
44 92 61 205 92 218 60z m926 -349 l2 -220 27 -3 c18 -2 28 -11 32 -28 9 -36
0 -60 -48 -119 -22 -28 -56 -71 -73 -95 l-33 -44 0 142 0 142 25 0 25 0 0 218
c0 120 3 222 7 226 4 4 13 5 21 4 11 -2 14 -44 15 -223z m-2282 16 c-2 -164
-2 -173 16 -168 10 3 50 17 88 30 131 47 269 44 250 -4 -5 -12 -26 -18 -88
-22 -106 -6 -183 -34 -282 -102 -152 -103 -253 -211 -291 -312 -23 -59 -50
-56 -47 6 4 78 141 252 269 340 l49 34 -3 174 c-2 96 -1 181 2 189 3 9 14 14
23 12 15 -3 16 -20 14 -177z m1549 -22 c5 -156 6 -164 25 -164 20 0 20 -6 16
-505 -3 -503 -3 -505 -25 -519 -11 -9 -42 -35 -67 -58 -25 -24 -49 -43 -53
-43 -3 0 -6 252 -6 559 l0 559 29 7 c28 6 28 7 35 97 3 50 6 121 6 158 0 37 3
70 7 74 22 21 28 -12 33 -165z m-1033 94 c7 -18 -13 -63 -28 -63 -15 0 -38 30
-39 51 0 36 54 46 67 12z m2327 -145 c-4 -13 -11 -250 -15 -528 -7 -510 -17
-674 -42 -742 -15 -43 -26 -58 -28 -37 -1 8 -5 1 -9 -16 l-8 -30 -2 30 c-2 25
-4 23 -11 -15 -4 -25 -9 -169 -10 -320 -1 -205 -4 -252 -9 -185 -4 50 -9 441
-11 871 l-4 780 51 80 c28 43 58 91 68 107 20 33 42 37 30 5z m-2294 -3 c33
-17 70 -80 70 -119 0 -65 -59 -126 -122 -126 -33 0 -100 41 -115 70 -16 32
-16 88 0 120 17 33 74 70 109 70 16 0 42 -7 58 -15z m-548 -343 c-1 -59 2
-134 6 -167 6 -52 10 -60 30 -63 21 -3 22 -7 22 -105 1 -348 -1 -632 -6 -636
-2 -3 -37 27 -76 67 l-72 71 -2 301 c-1 166 2 301 7 301 5 1 14 3 19 4 6 1 14
3 19 4 5 0 10 70 12 154 3 113 8 158 18 171 8 9 16 14 19 11 3 -3 5 -53 4
-113z m1796 -125 l2 -206 28 -3 c15 -2 26 -6 25 -10 -2 -5 -3 -43 -3 -86 0
-76 -1 -79 -37 -118 -21 -22 -54 -61 -73 -87 -19 -25 -38 -47 -42 -47 -5 0 -8
78 -8 174 l0 175 33 3 32 3 3 195 c2 205 4 224 25 218 9 -4 13 -57 15 -211z
m-1288 101 c0 -29 3 -70 6 -90 6 -32 11 -38 32 -38 l24 0 -4 -504 c-2 -278 -7
-508 -11 -512 -4 -4 -35 -1 -70 7 l-62 14 -6 70 c-4 39 -7 260 -8 493 l-1 423
30 10 c29 11 30 12 30 79 0 77 6 100 26 100 10 0 14 -14 14 -52z m2078 -558
c-3 -317 -7 -463 -15 -480 -7 -14 -12 -21 -12 -16 -1 5 -9 1 -20 -8 -16 -15
-19 -15 -24 -2 -12 31 -36 4 -42 -47 -3 -29 -10 -254 -14 -502 -7 -413 -8
-372 -9 508 l-2 957 65 85 c36 47 66 91 67 98 6 39 9 -195 6 -593z m-1304 378
c4 -112 5 -225 4 -252 -3 -46 -1 -50 22 -56 l25 -6 -2 -224 c-1 -206 -3 -226
-20 -238 -10 -7 -39 -28 -66 -47 -26 -19 -52 -35 -57 -35 -7 0 -9 96 -8 278
l3 277 22 -3 c12 -2 24 2 28 8 3 5 6 120 6 255 0 231 1 245 18 245 17 0 19
-15 25 -202z m-516 -100 l2 -247 28 -3 27 -3 -4 -310 c-2 -170 -4 -311 -5
-312 -1 -1 -35 -6 -74 -9 l-72 -7 0 320 0 321 31 6 31 6 -2 132 c-1 73 -2 184
-1 246 1 102 3 113 19 110 16 -3 17 -24 20 -250z m-1010 49 c16 -17 17 -37 7
-264 -6 -140 -11 -183 -21 -183 -28 0 -35 41 -33 188 2 164 -6 197 -43 183
-12 -4 -35 -31 -50 -59 -22 -41 -26 -57 -18 -77 14 -37 -9 -44 -36 -9 -22 26
-23 36 -19 118 7 136 1 129 108 122 56 -4 96 -11 105 -19z m-408 -62 c0 -98
-34 -97 -43 2 -5 53 5 75 29 66 10 -4 14 -24 14 -68z m2984 -397 c-2 -216 -8
-406 -13 -423 -5 -16 -10 -23 -10 -15 -1 10 -7 6 -16 -10 -8 -14 -14 -19 -15
-13 0 20 -24 10 -32 -12 -4 -14 -6 -8 -7 18 -1 23 -5 36 -11 32 -6 -4 -10
-114 -11 -293 -1 -158 -4 -370 -8 -472 -6 -184 -6 -182 -13 170 -5 195 -8 553
-8 795 l0 440 65 80 c36 44 65 83 65 87 0 5 4 8 10 8 6 0 8 -144 4 -392z
m-2076 49 l2 -246 28 -3 27 -3 3 -94 c1 -52 -1 -98 -5 -102 -5 -5 -43 12 -86
37 l-78 45 3 57 c3 55 4 57 33 62 l30 5 3 235 c1 129 4 241 7 248 3 8 11 12
18 10 9 -4 13 -65 15 -251z m-825 218 c62 -44 77 -137 29 -185 -54 -54 -177
-48 -207 10 -37 71 -3 177 60 192 38 8 93 0 118 -17z m2654 -204 c-4 -17 -7
-173 -8 -348 -2 -310 -11 -532 -24 -571 -6 -21 -55 -37 -55 -18 0 6 -5 4 -10
-4 -9 -13 -10 -13 -11 0 0 8 -5 4 -9 -10 -4 -14 -8 -130 -9 -257 -1 -128 -4
-233 -8 -233 -5 0 -10 294 -11 654 l-4 654 69 81 c37 45 72 81 77 81 5 0 6
-13 3 -29z m-2741 -213 c-3 -84 -9 -210 -12 -280 -6 -117 -5 -128 11 -128 15
0 17 -7 10 -67 -4 -38 -9 -70 -11 -72 -3 -3 -29 8 -59 24 -48 26 -55 34 -61
68 -7 45 -1 54 40 59 34 4 30 -28 40 298 4 124 9 231 12 238 2 6 11 12 20 12
15 0 16 -15 10 -152z m196 -21 l43 -33 3 -328 c2 -262 0 -327 -10 -323 -7 3
-39 17 -71 30 l-58 24 0 314 c0 173 0 322 0 332 1 28 45 21 93 -16z m2292 -24
c-4 -16 -6 -64 -5 -108 2 -89 -13 -215 -27 -224 -5 -3 -14 -15 -20 -26 -11
-19 -11 -19 -12 3 0 32 -20 27 -21 -5 -1 -17 -3 -21 -6 -10 -10 37 -20 14 -27
-60 -3 -42 -6 -229 -6 -416 0 -187 -2 -338 -4 -336 -3 2 -7 244 -11 536 l-6
531 68 70 c37 38 72 69 77 70 4 1 5 -10 0 -25z m-2051 -156 l33 -32 -8 -127
c-8 -131 -22 -173 -54 -161 -8 3 -14 0 -14 -6 0 -23 -19 -10 -23 17 -2 15 -5
-128 -6 -318 -1 -190 -6 -354 -11 -365 -5 -12 -9 211 -9 523 l-1 543 30 -21
c17 -12 45 -36 63 -53z m-724 -34 l-2 -58 -7 45 c-7 41 -4 70 6 70 2 0 3 -26
3 -57z m2523 -125 c-1 -68 -5 -164 -8 -215 -7 -103 -11 -109 -76 -94 l-38 9
-1 -102 c-1 -55 -5 -182 -8 -281 -6 -144 -8 -92 -9 262 l-2 443 38 24 c20 14
51 36 67 50 17 14 32 25 35 26 3 0 4 -55 2 -122z m-1603 0 c85 -50 81 -39 76
-242 -3 -100 -8 -204 -11 -232 l-5 -51 -36 2 c-20 1 -39 7 -41 13 -2 7 -8 12
-13 12 -5 0 -9 -77 -9 -179 0 -325 -17 -198 -24 182 -8 370 -3 517 17 517 5 0
26 -10 46 -22z m1347 -54 c-3 -8 -7 -69 -9 -133 -3 -100 -6 -121 -22 -137 -10
-11 -21 -19 -24 -19 -19 -2 -57 -19 -63 -29 -4 -6 -8 -103 -9 -216 -1 -117 -5
-192 -9 -175 -4 17 -8 170 -9 342 l-1 311 28 10 c15 6 43 22 62 36 40 29 65
34 56 10z m-1080 -80 c27 -9 54 -20 59 -25 14 -10 1 -222 -14 -227 -6 -2 -11
-14 -11 -27 0 -17 -7 -24 -30 -28 -16 -4 -37 -4 -45 -1 -13 5 -15 -17 -15
-171 0 -115 -3 -174 -10 -170 -6 4 -10 127 -10 336 0 266 3 329 13 329 7 0 36
-7 63 -16z m818 -36 c-4 -12 -6 -52 -6 -88 1 -41 -2 -58 -7 -45 -7 17 -8 17
-15 -8 -7 -28 -26 -32 -38 -7 -5 12 -7 12 -7 -2 -1 -27 -18 -21 -29 10 -8 20
-11 -22 -11 -158 -1 -123 -5 -180 -11 -170 -5 8 -10 108 -10 230 l0 215 58 22
c76 28 85 28 76 1z m-1956 -9 c22 -8 31 -47 15 -63 -4 -4 -8 -13 -9 -19 -2
-28 -17 -78 -25 -83 -5 -3 -9 -24 -10 -47 0 -23 -4 -60 -9 -82 l-9 -40 1 45
c3 182 -15 32 -27 -227 -5 -90 -12 -163 -17 -163 -9 0 -2 603 8 668 4 29 7 32
32 26 15 -4 37 -11 50 -15z m1447 -145 c0 -93 -3 -112 -19 -131 -11 -12 -23
-20 -28 -17 -4 3 -8 1 -8 -5 0 -6 -7 -8 -15 -5 -9 4 -15 0 -15 -7 0 -12 -2
-12 -9 0 -9 14 -10 3 -30 -264 -6 -87 -8 -40 -9 219 -1 181 1 332 3 336 2 4
32 2 67 -5 l63 -11 0 -110z m255 88 c-5 -9 -12 -34 -15 -56 -4 -21 -9 -35 -13
-32 -3 4 -12 -4 -19 -16 l-12 -23 -1 25 c-1 23 -2 23 -10 5 -5 -11 -9 -15 -9
-10 -1 6 -6 3 -11 -5 -8 -12 -10 -10 -10 9 0 13 -3 21 -7 17 -4 -4 -10 -129
-13 -279 l-6 -272 -2 327 -2 327 63 3 c74 4 79 2 67 -20z m-1542 -27 c15 -8
40 -20 56 -25 l29 -11 -7 -91 c-3 -50 -6 -112 -6 -137 0 -36 -5 -49 -21 -60
-17 -10 -23 -10 -29 -1 -6 9 -11 7 -19 -6 -10 -18 -10 -18 -12 1 -3 28 -17
-79 -19 -145 -2 -44 -3 -49 -9 -25 -7 34 -2 515 6 515 3 0 17 -7 31 -15z m205
-406 c3 -91 2 -171 -2 -178 -9 -14 -22 243 -20 403 l2 111 7 -85 c5 -47 10
-160 13 -251z m1477 -41 c0 -28 -2 -49 -4 -47 -8 9 -13 99 -5 99 5 0 9 -23 9
-52z m-773 -130 c-3 -8 -6 -5 -6 6 -1 11 2 17 5 13 3 -3 4 -12 1 -19z m-745
-309 c38 -10 129 -67 135 -85 4 -12 -65 -104 -78 -104 -4 0 -24 11 -44 24
-106 72 -248 33 -308 -84 -35 -67 -32 -125 10 -201 55 -102 167 -130 286 -71
l60 30 49 -41 c26 -23 48 -46 48 -52 0 -15 -89 -72 -139 -90 -72 -25 -139 -28
-215 -11 -145 34 -230 116 -262 254 -30 128 -3 249 77 336 90 99 227 133 381
95z m1309 -66 c21 -49 47 -104 57 -123 40 -75 214 -481 209 -486 -3 -4 -35 -9
-71 -11 l-65 -6 -33 69 -33 68 -150 0 -149 -1 -31 -64 -30 -64 -67 -3 c-51 -2
-68 0 -68 10 0 34 219 567 271 658 20 35 28 40 77 40 l43 0 40 -87z m2457 71
c4 -3 -78 -140 -122 -204 -17 -25 -35 -52 -41 -61 -5 -9 -18 -28 -28 -42 l-19
-26 116 -173 117 -173 -78 -5 c-43 -3 -83 -1 -90 3 -7 5 -26 33 -43 63 -43 76
-101 156 -109 149 -3 -4 -37 -54 -76 -111 l-70 -105 -77 -4 c-54 -3 -78 -1
-78 7 0 16 102 178 167 267 65 87 71 63 -66 260 -51 75 -96 142 -98 149 -4 9
16 12 81 12 l86 0 60 -91 c33 -50 60 -95 60 -100 0 -20 28 -7 39 19 17 36 101
165 114 174 10 6 147 -1 155 -8z m-3388 -137 l0 -144 133 4 c72 3 137 6 143 8
7 2 9 44 7 123 -1 67 0 128 3 136 5 12 22 16 75 16 l69 0 0 -345 0 -346 -72 3
-73 3 -2 120 c-1 66 -2 126 -3 133 0 9 -35 12 -140 12 l-139 0 -3 -136 -3
-136 -58 -1 c-46 -2 -61 2 -68 15 -10 19 -13 661 -2 671 3 4 35 7 70 7 l63 0
0 -143z m1705 113 c94 -49 143 -170 110 -270 -18 -55 -81 -130 -108 -130 -10
0 -17 -8 -17 -17 0 -19 66 -126 118 -191 19 -24 33 -44 31 -46 -2 -2 -38 -6
-79 -10 l-75 -6 -75 114 c-79 121 -85 126 -167 126 l-34 0 1 -102 c1 -57 1
-111 1 -121 -1 -16 -9 -18 -68 -15 l-68 3 -3 348 -2 348 193 -3 c184 -3 195
-4 242 -28z m753 -37 l-3 -68 -102 -3 -103 -3 -2 -277 -3 -277 -67 -3 c-38 -2
-68 -2 -68 0 -1 2 -3 122 -6 268 -3 146 -7 271 -9 278 -3 8 -33 12 -105 12
l-100 0 -1 30 c0 17 -1 46 -1 65 0 19 1 37 1 40 1 3 129 5 286 5 l286 0 -3
-67z m242 -278 l0 -345 -69 0 -69 0 -4 338 c-2 185 -2 340 0 345 2 4 34 7 73
7 l69 0 0 -345z m-1293 -532 c26 -18 73 -107 73 -141 0 -61 -81 -142 -141
-142 -38 1 -106 36 -125 64 -55 85 -18 210 71 235 36 11 92 3 122 -16z m-370
-115 c-3 -10 -157 -12 -738 -9 -404 2 -743 7 -754 12 -11 4 321 8 738 8 603 1
758 -2 754 -11z m1788 1 c-49 -4 -338 -9 -642 -12 -462 -3 -553 -2 -557 10 -5
11 96 13 642 11 356 -1 607 -5 557 -9z"/>
<path d="M4498 5970 c-21 -13 -24 -72 -5 -88 6 -6 24 -13 39 -17 52 -13 95 58
59 98 -13 13 -75 18 -93 7z"/>
<path d="M3460 5433 c-26 -33 -23 -60 11 -86 34 -24 64 -16 84 24 17 33 9 61
-25 79 -30 16 -47 12 -70 -17z"/>
<path d="M2336 4664 c-19 -18 -21 -75 -4 -92 13 -13 66 -16 84 -4 6 4 15 21
18 39 6 25 3 36 -13 52 -25 25 -63 27 -85 5z"/>
<path d="M3616 2494 c-25 -53 -46 -102 -46 -109 0 -11 19 -13 88 -9 63 3 86 8
84 17 -5 19 -74 197 -77 197 -1 0 -23 -43 -49 -96z"/>
<path d="M4237 2579 c-2 -52 -3 -97 0 -101 7 -13 176 -9 203 5 36 17 64 79 53
114 -17 50 -53 67 -157 71 l-93 4 -6 -93z"/>
</g>
</svg>
