<svg width="230" height="79" viewBox="0 0 230 79" fill="none" xmlns="http://www.w3.org/2000/svg">
<path d="M40.9688 17.8594C40.9688 17.9844 40.9062 18.1719 40.7812 18.4219C40.6562 18.6406 40.5 18.875 40.3125 19.125C40.125 19.3438 39.9219 19.5625 39.7031 19.7812C39.5156 20 39.3438 20.1719 39.1875 20.2969C39.0625 20.3906 38.8906 20.4531 38.6719 20.4844C38.4531 20.5156 38.2812 20.5781 38.1562 20.6719C37.9062 20.8906 37.6406 21.1406 37.3594 21.4219C37.1094 21.7031 36.8594 21.9688 36.6094 22.2188C36.3594 22.4688 36.1094 22.6875 35.8594 22.875C35.6406 23.0312 35.4219 23.1094 35.2031 23.1094C34.3906 23.1094 33.625 22.9375 32.9062 22.5938C32.2188 22.2188 31.4375 21.8281 30.5625 21.4219C29.6875 20.9844 28.6406 20.5938 27.4219 20.25C26.2344 19.875 24.7031 19.6875 22.8281 19.6875C22.2031 19.6875 21.5781 19.7656 20.9531 19.9219C20.3281 20.0469 19.75 20.2969 19.2188 20.6719C18.7812 21.0156 18.3438 21.4531 17.9062 21.9844C17.4688 22.5156 16.9844 23.0156 16.4531 23.4844C16.1406 23.7656 15.8125 23.9688 15.4688 24.0938C15.125 24.2188 14.875 24.3594 14.7188 24.5156C14.5312 24.7031 14.3438 24.9844 14.1562 25.3594C14 25.7344 13.8281 26.0469 13.6406 26.2969C13.2656 26.7656 12.9688 27.1562 12.75 27.4688C12.5312 27.75 12.25 28.1719 11.9062 28.7344C11.8125 28.8906 11.6875 29.0156 11.5312 29.1094C11.4062 29.1719 11.2969 29.2812 11.2031 29.4375C11.1094 29.5625 11.0469 29.7344 11.0156 29.9531C11.0156 30.1406 10.9531 30.3125 10.8281 30.4688C10.7031 30.6562 10.5938 30.8125 10.5 30.9375C10.4062 31.0312 10.2969 31.2031 10.1719 31.4531C10.0781 31.7031 9.9375 32.0781 9.75 32.5781C9.59375 33.0469 9.375 33.75 9.09375 34.6875C9.0625 34.8125 8.98438 35.1875 8.85938 35.8125C8.73438 36.4062 8.57812 36.9688 8.39062 37.5C8.29688 37.75 8.09375 38.0469 7.78125 38.3906C7.46875 38.7344 7.3125 39.1562 7.3125 39.6562C7.3125 39.875 7.32812 40.125 7.35938 40.4062C7.39062 40.6875 7.40625 40.9844 7.40625 41.2969C7.40625 41.8281 7.28125 42.2969 7.03125 42.7031C6.78125 43.0781 6.65625 43.4844 6.65625 43.9219C6.65625 44.2656 6.70312 44.6875 6.79688 45.1875C6.92188 45.6562 7 46.1094 7.03125 46.5469C7.0625 47.2969 7.07812 48.0625 7.07812 48.8438C7.10938 49.625 7.15625 50.4062 7.21875 51.1875C7.28125 51.9375 7.375 52.6719 7.5 53.3906C7.625 54.1094 7.8125 54.7656 8.0625 55.3594V55.4531C8.0625 55.5156 8.04688 55.5938 8.01562 55.6875C8.01562 55.75 8.01562 55.8125 8.01562 55.875C8.01562 55.9688 8.03125 56.0156 8.0625 56.0156C8.3125 56.2344 8.48438 56.5469 8.57812 56.9531C8.70312 57.3281 8.84375 57.7812 9 58.3125C9.15625 58.8125 9.39062 59.3594 9.70312 59.9531C10.0156 60.5156 10.5156 61.0781 11.2031 61.6406C11.4844 61.8906 11.875 62.1094 12.375 62.2969C12.9062 62.4844 13.4375 62.7344 13.9688 63.0469C14.5312 63.3906 15.0469 63.75 15.5156 64.125C15.9844 64.5 16.2969 64.7188 16.4531 64.7812C16.7969 64.875 17.2969 64.9531 17.9531 65.0156C18.6406 65.0469 19.3438 65.0625 20.0625 65.0625C21 65.0625 21.7969 65.0469 22.4531 65.0156C23.1094 64.9531 23.7031 64.8594 24.2344 64.7344C24.7656 64.6094 25.2656 64.4375 25.7344 64.2188C26.2031 64 26.7188 63.7188 27.2812 63.375C27.5 63.25 27.75 63.1406 28.0312 63.0469C28.3125 62.9531 28.5312 62.8281 28.6875 62.6719C28.9688 62.4219 29.2188 62.0781 29.4375 61.6406C29.6875 61.2031 30.0312 60.8594 30.4688 60.6094C30.625 60.4844 30.8438 60.4375 31.125 60.4688C31.4375 60.4688 31.6719 60.3906 31.8281 60.2344C32.0781 59.9844 32.25 59.6562 32.3438 59.25C32.4688 58.8125 32.6562 58.4375 32.9062 58.125C33.1562 57.8125 33.4375 57.5625 33.75 57.375C34.0938 57.1875 34.3906 56.9688 34.6406 56.7188C34.8281 56.5312 35.0156 56.2969 35.2031 56.0156C35.4219 55.7344 35.6406 55.4688 35.8594 55.2188C36.1094 54.9375 36.3906 54.7188 36.7031 54.5625C37.0156 54.375 37.3906 54.2812 37.8281 54.2812H38.1562C37.9062 54.9062 37.5469 55.4531 37.0781 55.9219C36.6406 56.3906 36.1875 56.8906 35.7188 57.4219L32.5312 60.9375C32.1875 61.3125 31.875 61.8438 31.5938 62.5312C31.3125 63.2188 30.9375 63.8438 30.4688 64.4062C30.3125 64.5625 30.0938 64.7188 29.8125 64.875C29.5312 65.0312 29.2812 65.2344 29.0625 65.4844C28.7188 65.8281 28.4688 66.125 28.3125 66.375C28.1875 66.625 27.9688 66.9062 27.6562 67.2188C27.4688 67.375 27.2188 67.4844 26.9062 67.5469C26.625 67.5781 26.2969 67.7031 25.9219 67.9219C25.7969 67.9844 25.7188 68.125 25.6875 68.3438C25.6875 68.5312 25.6094 68.625 25.4531 68.625C25.3906 68.625 25.3125 68.6094 25.2188 68.5781C25.1562 68.5781 25.0938 68.5781 25.0312 68.5781C24.875 68.5781 24.7188 68.6719 24.5625 68.8594C24.4375 69.0781 24.2969 69.2344 24.1406 69.3281C23.6406 69.5156 23.0312 69.625 22.3125 69.6562C21.5938 69.7188 20.9219 69.8438 20.2969 70.0312C19.5781 70.2188 18.6875 70.3125 17.625 70.3125C16.625 70.3125 15.6406 70.2344 14.6719 70.0781C13.7031 69.9219 12.9062 69.6719 12.2812 69.3281C11.5312 68.9219 10.6094 68.5 9.51562 68.0625C8.45312 67.625 7.5 67.1094 6.65625 66.5156C6.59375 66.4531 6.53125 66.3281 6.46875 66.1406C6.40625 65.9531 6.34375 65.8594 6.28125 65.8594C6.0625 65.7344 5.84375 65.6562 5.625 65.625C5.40625 65.5625 5.17188 65.3906 4.92188 65.1094C4.67188 64.8281 4.40625 64.4062 4.125 63.8438C3.84375 63.25 3.51562 62.7344 3.14062 62.2969C2.48438 61.5781 2.03125 60.5625 1.78125 59.25C1.53125 57.9062 1.28125 56.4844 1.03125 54.9844C1.03125 54.9219 0.96875 54.8281 0.84375 54.7031C0.75 54.5781 0.703125 54.4375 0.703125 54.2812C0.703125 54.0625 0.65625 53.75 0.5625 53.3438C0.5 52.9375 0.421875 52.5 0.328125 52.0312C0.265625 51.5312 0.1875 51.0469 0.09375 50.5781C0.03125 50.1094 0 49.7031 0 49.3594C0 49.0781 0.046875 48.75 0.140625 48.375C0.234375 48 0.296875 47.6406 0.328125 47.2969C0.421875 46.4531 0.5 45.5781 0.5625 44.6719C0.65625 43.7344 0.765625 42.8125 0.890625 41.9062C1.01562 40.9688 1.17188 40.0781 1.35938 39.2344C1.54688 38.3594 1.79688 37.5469 2.10938 36.7969V36.75C2.10938 36.6875 2.09375 36.6094 2.0625 36.5156C2.0625 36.3906 2.0625 36.2969 2.0625 36.2344C2.0625 36.1406 2.07812 36.0781 2.10938 36.0469C2.32812 35.8906 2.45312 35.6719 2.48438 35.3906C2.51562 35.0781 2.625 34.7344 2.8125 34.3594C2.875 34.1406 3.01562 33.9219 3.23438 33.7031C3.48438 33.4531 3.6875 33.1875 3.84375 32.9062C4 32.6562 4.125 32.3438 4.21875 31.9688C4.34375 31.5938 4.45312 31.3281 4.54688 31.1719C4.79688 30.8281 5.15625 30.4531 5.625 30.0469C6.125 29.6094 6.59375 29.1719 7.03125 28.7344C7.8125 27.9219 8.57812 27.125 9.32812 26.3438C10.1094 25.5312 10.9688 24.7031 11.9062 23.8594C12.7812 23.0469 13.6562 22.3125 14.5312 21.6562C15.4062 21 16.2812 20.3281 17.1562 19.6406C17.4375 19.4219 17.6094 19.1719 17.6719 18.8906C17.7656 18.6094 17.9375 18.3906 18.1875 18.2344C18.7188 17.7969 19.4219 17.3906 20.2969 17.0156C21.2031 16.6406 22.0312 16.2344 22.7812 15.7969C22.9688 15.7031 23.1875 15.5625 23.4375 15.375C23.7188 15.1562 23.9844 14.9531 24.2344 14.7656C24.4844 14.5469 24.7344 14.375 24.9844 14.25C25.2344 14.0938 25.4531 14.0156 25.6406 14.0156C25.7031 14.0156 25.7812 14.0312 25.875 14.0625C25.9688 14.0625 26.0469 14.0625 26.1094 14.0625C26.2656 14.0625 26.4844 13.9688 26.7656 13.7812C27.0469 13.5938 27.375 13.5 27.75 13.5C28.1875 13.5 28.6719 13.5625 29.2031 13.6875C29.7344 13.8125 30.25 13.9531 30.75 14.1094C31.2812 14.2656 31.7656 14.4375 32.2031 14.625C32.6406 14.8125 33 14.9531 33.2812 15.0469C33.5625 15.1719 33.7656 15.2344 33.8906 15.2344C34.0156 15.2344 34.2031 15.2656 34.4531 15.3281C34.7031 15.3594 35.0938 15.4844 35.625 15.7031C36.1875 15.9219 37.0312 16.2969 38.1562 16.8281C38.2812 16.8906 38.4844 16.9531 38.7656 17.0156C39.0781 17.0781 39.3906 17.1406 39.7031 17.2031C40.0156 17.2656 40.2812 17.3594 40.5 17.4844C40.75 17.5781 40.9062 17.7031 40.9688 17.8594ZM77.1094 55.3594C77.3594 55.5156 77.4844 55.7344 77.4844 56.0156C77.4844 56.2344 77.4062 56.4688 77.25 56.7188C77.125 56.9375 76.9688 57.1562 76.7812 57.375C76.5938 57.5938 76.4219 57.7812 76.2656 57.9375C76.1094 58.0625 76.0312 58.1406 76.0312 58.1719C75.8125 58.3906 75.6406 58.5938 75.5156 58.7812C75.4219 58.9375 75.25 59.1875 75 59.5312C74.7812 59.875 74.5781 60.1562 74.3906 60.375C74.2031 60.5938 74 60.8125 73.7812 61.0312C73.5938 61.25 73.3906 61.4844 73.1719 61.7344C72.9531 61.9844 72.7344 62.2969 72.5156 62.6719L71.1094 64.4531C71.0156 64.6094 70.875 64.7812 70.6875 64.9688C70.5312 65.125 70.4375 65.2969 70.4062 65.4844C70.4062 65.6406 70.3125 65.7812 70.125 65.9062C69.9375 66 69.7344 66.1094 69.5156 66.2344C69.2969 66.3281 69.0938 66.4375 68.9062 66.5625C68.7188 66.6875 68.625 66.8281 68.625 66.9844C68.625 67.0469 68.6406 67.1406 68.6719 67.2656C68.7031 67.3594 68.7188 67.4375 68.7188 67.5C68.7188 67.5938 68.6562 67.6406 68.5312 67.6406C68.4688 67.6406 68.3906 67.6406 68.2969 67.6406C68.2031 67.6094 68.125 67.5938 68.0625 67.5938C67.9375 67.5938 67.8438 67.7031 67.7812 67.9219C67.75 68.1406 67.7031 68.2656 67.6406 68.2969C67.4531 68.4219 67.1094 68.5625 66.6094 68.7188C66.1094 68.875 65.5938 69.0312 65.0625 69.1875C64.5625 69.3438 64.0938 69.4688 63.6562 69.5625C63.25 69.6875 63.0156 69.75 62.9531 69.75C62.8594 69.75 62.7812 69.7344 62.7188 69.7031C62.7188 69.6719 62.5938 69.5625 62.3438 69.375C62.0938 69.1875 61.8281 68.9531 61.5469 68.6719C61.2656 68.4219 61 68.1406 60.75 67.8281C60.5 67.5156 60.375 67.2031 60.375 66.8906C60.375 66.6406 60.3906 66.3594 60.4219 66.0469C60.4844 65.7344 60.5469 65.3125 60.6094 64.7812C60.6719 64.7812 60.7344 64.7656 60.7969 64.7344C60.9219 64.6719 60.9844 64.5781 60.9844 64.4531C60.9844 64.2969 60.9219 64.125 60.7969 63.9375C60.6719 63.75 60.6094 63.5156 60.6094 63.2344C60.6094 62.7656 60.7188 62.3594 60.9375 62.0156C61.1562 61.6719 61.2969 61.3281 61.3594 60.9844C61.4531 59.9531 61.4844 58.8594 61.4531 57.7031C61.4531 56.5469 61.5312 55.4062 61.6875 54.2812C61.75 53.75 61.875 53.2188 62.0625 52.6875C62.25 52.125 62.3594 51.6094 62.3906 51.1406C62.3906 50.9844 62.375 50.8125 62.3438 50.625C62.3438 50.4375 62.3438 50.2656 62.3438 50.1094C62.3438 49.7031 62.4062 49.4375 62.5312 49.3125C62.6562 49.1562 62.7188 48.9531 62.7188 48.7031C62.7188 48.3906 62.6562 48.0781 62.5312 47.7656C62.4375 47.4531 62.3906 47.1406 62.3906 46.8281C62.3906 46.0469 62.4688 45.2969 62.625 44.5781C62.7812 43.8594 62.9531 43.1406 63.1406 42.4219C63.3281 41.6719 63.5 40.9219 63.6562 40.1719C63.8125 39.3906 63.8906 38.5781 63.8906 37.7344C63.8906 37.4844 63.8906 37.2188 63.8906 36.9375C63.8906 36.6562 63.8594 36.375 63.7969 36.0938C62.9531 36.1562 62.2188 36.5 61.5938 37.125C61 37.75 60.4375 38.3438 59.9062 38.9062C59.5 39.3438 59.0938 39.7812 58.6875 40.2188C58.3125 40.625 57.9062 41.1094 57.4688 41.6719C57.1562 42.0781 56.875 42.5938 56.625 43.2188C56.375 43.8438 56.0781 44.5156 55.7344 45.2344C55.7344 45.2344 55.6719 45.2969 55.5469 45.4219C55.4219 45.5469 55.2812 45.6875 55.125 45.8438C54.9688 46 54.8125 46.1875 54.6562 46.4062C54.5312 46.5938 54.4219 46.7656 54.3281 46.9219C54.0781 47.4219 53.8594 48.0469 53.6719 48.7969C53.4844 49.5469 53.1094 50.4531 52.5469 51.5156C52.4219 51.7656 52.3125 51.9531 52.2188 52.0781C52.1562 52.1719 52.0938 52.3594 52.0312 52.6406C51.9688 52.8906 51.8906 53.2969 51.7969 53.8594C51.7344 54.4219 51.6406 55.2656 51.5156 56.3906C51.4531 56.7656 51.3438 57.1094 51.1875 57.4219C51.0312 57.7031 50.9219 58.0625 50.8594 58.5C50.7656 59.125 50.7188 59.8125 50.7188 60.5625C50.7188 61.2812 50.6406 61.9844 50.4844 62.6719C50.4219 62.8281 50.2969 62.9688 50.1094 63.0938C49.9531 63.2188 49.8438 63.3281 49.7812 63.4219C49.5625 63.7656 49.4375 64.125 49.4062 64.5C49.4062 64.875 49.2969 65.2031 49.0781 65.4844C49.0156 65.5781 48.8906 65.6562 48.7031 65.7188C48.5156 65.75 48.4062 65.7969 48.375 65.8594C48.125 66.3281 47.9375 66.7656 47.8125 67.1719C47.6875 67.5469 47.5625 67.875 47.4375 68.1562C47.3438 68.4375 47.2031 68.6562 47.0156 68.8125C46.8594 68.9688 46.5938 69.0469 46.2188 69.0469C45.9375 69.0469 45.6094 69 45.2344 68.9062C44.8906 68.8125 44.5469 68.6875 44.2031 68.5312C43.8906 68.375 43.625 68.2031 43.4062 68.0156C43.1875 67.7969 43.0781 67.5781 43.0781 67.3594C43.0781 67.0781 43.2031 66.75 43.4531 66.375C43.7031 66 43.8281 65.375 43.8281 64.5C43.8281 63.9375 43.7812 63.4844 43.6875 63.1406C43.625 62.7656 43.5938 62.375 43.5938 61.9688C43.5938 61.6562 43.6406 61.3594 43.7344 61.0781C43.8594 60.7656 43.9688 60.4844 44.0625 60.2344C44.1875 59.9531 44.2969 59.6875 44.3906 59.4375C44.5156 59.1562 44.5781 58.8906 44.5781 58.6406C44.5781 58.3906 44.5625 58.1562 44.5312 57.9375C44.5 57.7188 44.4844 57.4844 44.4844 57.2344C44.4844 56.7344 44.5781 56.25 44.7656 55.7812C44.9531 55.3125 45.1094 54.8125 45.2344 54.2812C45.3281 53.875 45.3906 53.4219 45.4219 52.9219C45.4844 52.4219 45.5469 51.9531 45.6094 51.5156C45.9531 49.3906 46.3438 47.25 46.7812 45.0938C47.25 42.9062 47.6719 40.6094 48.0469 38.2031C48.0469 38.1406 48.0938 38.0312 48.1875 37.875C48.3125 37.7188 48.375 37.5469 48.375 37.3594C48.375 37.2031 48.3594 37.0156 48.3281 36.7969C48.3281 36.5781 48.3281 36.3438 48.3281 36.0938C48.3281 35.5625 48.4531 35.0781 48.7031 34.6406C48.9531 34.1719 49.0781 33.6406 49.0781 33.0469C49.0781 32.6094 49.0312 32.2188 48.9375 31.875C48.8438 31.5 48.7969 31.1094 48.7969 30.7031C48.7969 30.3906 48.8438 30.125 48.9375 29.9062C49.0625 29.6875 49.1875 29.5 49.3125 29.3438C49.4375 29.1875 49.5469 29.0469 49.6406 28.9219C49.7656 28.7656 49.8281 28.6094 49.8281 28.4531C49.8281 28.2031 49.75 28.0156 49.5938 27.8906C49.4688 27.7656 49.4062 27.6094 49.4062 27.4219C49.5312 27.4219 49.625 27.3281 49.6875 27.1406L49.7812 26.8594V26.4375C49.7812 26.125 49.8594 25.8438 50.0156 25.5938C50.2031 25.3125 50.3594 24.9688 50.4844 24.5625C50.6406 24.0625 50.7188 23.5938 50.7188 23.1562C50.7188 22.7188 50.7656 22.1406 50.8594 21.4219C50.9219 21.0156 51.0469 20.6094 51.2344 20.2031C51.4531 19.7656 51.5625 19.1875 51.5625 18.4688C51.5625 18.125 51.5312 17.8125 51.4688 17.5312C51.4375 17.2188 51.4219 16.9062 51.4219 16.5938C51.4219 16.3125 51.4531 16.0781 51.5156 15.8906C51.6094 15.7031 51.7031 15.5469 51.7969 15.4219C51.9219 15.2656 52.0156 15.125 52.0781 15C52.1719 14.875 52.2188 14.7188 52.2188 14.5312C52.2188 14.2812 52.1562 14.0469 52.0312 13.8281C51.9375 13.6094 51.8906 13.375 51.8906 13.125C51.8906 12.7813 51.9531 12.3594 52.0781 11.8594C52.2031 11.3594 52.3438 10.8594 52.5 10.3594C52.6875 9.85937 52.8438 9.42188 52.9688 9.04688C53.0938 8.64062 53.1562 8.375 53.1562 8.25C53.1562 7.96875 53.0312 7.78125 52.7812 7.6875C52.5312 7.5625 52.3281 7.5 52.1719 7.5C51.8281 7.5 51.5156 7.625 51.2344 7.875C50.9531 8.09375 50.6719 8.375 50.3906 8.71875C50.1406 9.03125 49.9062 9.35938 49.6875 9.70312C49.4688 10.0469 49.2656 10.3281 49.0781 10.5469C48.9219 10.7031 48.7344 10.8281 48.5156 10.9219C48.2969 10.9844 48.1406 11.0938 48.0469 11.25C47.9219 11.4062 47.7812 11.6094 47.625 11.8594C47.5 12.0781 47.3438 12.3125 47.1562 12.5625C47 12.7813 46.8281 12.9688 46.6406 13.125C46.4844 13.2812 46.3125 13.3594 46.125 13.3594C45.9375 13.3594 45.6875 13.2031 45.375 12.8906C45.0938 12.5781 44.9531 12.25 44.9531 11.9062C44.9531 11.75 45 11.625 45.0938 11.5312C45.2188 11.4375 45.3438 11.3438 45.4688 11.25C45.625 11.1562 45.7812 11.0312 45.9375 10.875C46.0938 10.6875 46.2031 10.4531 46.2656 10.1719C46.3594 9.76562 46.5781 9.39062 46.9219 9.04688C47.2656 8.70313 47.6875 8.32813 48.1875 7.92188C48.7188 7.51562 49.3281 7.03125 50.0156 6.46875C50.7031 5.875 51.4375 5.14063 52.2188 4.26562C52.4688 3.98438 52.7656 3.75 53.1094 3.5625C53.4531 3.375 53.75 3.14062 54 2.85938C54.125 2.73437 54.1875 2.5625 54.1875 2.34375C54.1875 2.125 54.2344 1.9375 54.3281 1.78125C54.4219 1.6875 54.6094 1.54688 54.8906 1.35938C55.1719 1.14062 55.4844 0.9375 55.8281 0.75C56.1719 0.53125 56.5 0.359375 56.8125 0.234375C57.125 0.078125 57.3438 0 57.4688 0C58.5312 0 59.1875 0.203125 59.4375 0.609375C59.7188 0.984375 59.8594 1.46875 59.8594 2.0625C59.8594 2.59375 59.7812 3.20312 59.625 3.89062C59.5 4.54688 59.3438 5.25 59.1562 6C59 6.71875 58.8438 7.45312 58.6875 8.20312C58.5625 8.95312 58.5 9.65625 58.5 10.3125C58.5 10.625 58.5156 10.9063 58.5469 11.1562C58.5781 11.375 58.5938 11.6094 58.5938 11.8594C58.5938 12.4531 58.4375 12.9688 58.125 13.4062C57.8125 13.8125 57.5938 14.2656 57.4688 14.7656C57.3125 15.4219 57.2031 16.0469 57.1406 16.6406C57.0781 17.2344 57.0156 17.8438 56.9531 18.4688C56.9219 19.0625 56.875 19.6875 56.8125 20.3438C56.75 21 56.625 21.7031 56.4375 22.4531C56.3438 22.8594 56.1875 23.3125 55.9688 23.8125C55.75 24.2812 55.6406 24.8438 55.6406 25.5C55.6406 25.7188 55.6562 25.9375 55.6875 26.1562C55.75 26.375 55.7812 26.625 55.7812 26.9062C55.7812 27.375 55.7344 27.9375 55.6406 28.5938C55.5781 29.25 55.4844 29.9375 55.3594 30.6562C55.2656 31.3438 55.1562 32.0469 55.0312 32.7656C54.9062 33.4531 54.7812 34.1094 54.6562 34.7344C54.625 34.8281 54.5625 35.0625 54.4688 35.4375C54.375 35.7812 54.2656 36.1875 54.1406 36.6562C54.0469 37.125 53.9531 37.625 53.8594 38.1562C53.7969 38.6562 53.7656 39.1094 53.7656 39.5156C53.7656 39.9531 53.8125 40.2969 53.9062 40.5469C54.0312 40.7969 54.2031 40.9219 54.4219 40.9219C54.6406 40.9219 54.875 40.7812 55.125 40.5C55.375 40.2188 55.625 39.9062 55.875 39.5625C56.125 39.2188 56.3594 38.9062 56.5781 38.625C56.8281 38.3438 57.0469 38.2031 57.2344 38.2031C57.2969 38.2031 57.375 38.2188 57.4688 38.25C57.5625 38.25 57.6406 38.25 57.7031 38.25C57.7969 38.25 57.8438 38.1875 57.8438 38.0625C57.8438 38 57.8281 37.9219 57.7969 37.8281C57.7656 37.7344 57.75 37.6562 57.75 37.5938C57.75 37.5312 57.8594 37.4219 58.0781 37.2656C58.2969 37.0781 58.4531 36.9219 58.5469 36.7969C58.7656 36.4219 59 35.9844 59.25 35.4844C59.5 34.9844 59.8438 34.7344 60.2812 34.7344C60.3438 34.7344 60.6406 34.4688 61.1719 33.9375C61.7031 33.375 62.3438 32.7656 63.0938 32.1094C63.875 31.4531 64.7031 30.8594 65.5781 30.3281C66.4844 29.7656 67.3438 29.4844 68.1562 29.4844C69.25 29.4844 70.0469 29.6719 70.5469 30.0469C71.0781 30.3906 71.3438 31.0312 71.3438 31.9688C71.3438 32.6875 71.2969 33.375 71.2031 34.0312C71.1094 34.6875 71 35.2656 70.875 35.7656C70.7812 36.2344 70.6719 36.625 70.5469 36.9375C70.4531 37.25 70.4062 37.4375 70.4062 37.5C70.3438 38.9375 70.1406 40.4688 69.7969 42.0938C69.4531 43.7188 69.2031 45.3281 69.0469 46.9219C68.9219 48.0469 68.7969 49.1562 68.6719 50.25C68.5781 51.3438 68.4531 52.4688 68.2969 53.625C68.1406 54.625 67.9219 55.6719 67.6406 56.7656C67.3906 57.8594 67.2656 58.8906 67.2656 59.8594C67.2656 60.3906 67.2969 60.9219 67.3594 61.4531C67.4219 61.9531 67.4531 62.4688 67.4531 63C67.4531 63.5625 67.3906 64.0469 67.2656 64.4531C67.3906 64.5469 67.5469 64.5938 67.7344 64.5938C67.9531 64.5938 68.1562 64.5 68.3438 64.3125C68.5312 64.125 68.7031 63.9219 68.8594 63.7031C69.0469 63.4531 69.2344 63.2344 69.4219 63.0469C69.6094 62.8281 69.8281 62.7031 70.0781 62.6719C70.0781 62.6719 70.1875 62.5625 70.4062 62.3438C70.6562 62.125 70.9219 61.875 71.2031 61.5938C71.4844 61.3125 71.75 61.0469 72 60.7969C72.2812 60.5156 72.4531 60.3281 72.5156 60.2344C72.6406 60.1094 72.6875 59.9531 72.6562 59.7656C72.6562 59.5469 72.7344 59.3594 72.8906 59.2031C72.9531 59.1094 73.0625 59.0469 73.2188 59.0156C73.375 58.9844 73.4844 58.9375 73.5469 58.875C73.6406 58.7188 73.7031 58.5469 73.7344 58.3594C73.7656 58.1406 73.8281 57.9531 73.9219 57.7969C73.9844 57.7031 74.0938 57.6406 74.25 57.6094C74.4375 57.5781 74.5625 57.5156 74.625 57.4219C74.6562 57.3906 74.7031 57.25 74.7656 57C74.8594 56.75 74.9688 56.5 75.0938 56.25C75.25 55.9688 75.4219 55.7188 75.6094 55.5C75.8281 55.2812 76.0938 55.1719 76.4062 55.1719C76.625 55.1719 76.8594 55.2344 77.1094 55.3594ZM110.625 56.0625C110.844 56.2812 110.953 56.5312 110.953 56.8125C110.953 57.2812 110.812 57.7031 110.531 58.0781C110.25 58.4219 109.891 58.7656 109.453 59.1094C109.047 59.4219 108.594 59.75 108.094 60.0938C107.625 60.4375 107.188 60.8438 106.781 61.3125C106.25 61.9375 105.625 62.6562 104.906 63.4688C104.219 64.25 103.672 65.0469 103.266 65.8594C103.203 66.0156 103 66.3125 102.656 66.75C102.344 67.1875 101.953 67.6562 101.484 68.1562C101.047 68.6562 100.547 69.0938 99.9844 69.4688C99.4531 69.8438 98.9375 70.0312 98.4375 70.0312C98.0938 70.0312 97.75 69.9688 97.4062 69.8438C97.0938 69.75 96.7969 69.6094 96.5156 69.4219C96.2344 69.2656 96 69.0781 95.8125 68.8594C95.6562 68.6719 95.5781 68.4844 95.5781 68.2969C95.5781 68.0156 95.6875 67.7344 95.9062 67.4531C96.1562 67.1719 96.2812 66.7344 96.2812 66.1406C96.2812 65.9844 96.25 65.875 96.1875 65.8125C96.1562 65.75 96.1094 65.6719 96.0469 65.5781C96.0156 65.4844 95.9844 65.3594 95.9531 65.2031C95.9219 65.0469 95.9062 64.7969 95.9062 64.4531C95.9062 64.1094 95.9531 63.75 96.0469 63.375C96.1719 62.9688 96.2969 62.5625 96.4219 62.1562C96.5781 61.7188 96.7031 61.2969 96.7969 60.8906C96.9219 60.4531 96.9844 60.0312 96.9844 59.625C96.9844 59.5312 96.9688 59.4375 96.9375 59.3438C96.9375 59.2188 96.9375 59.1094 96.9375 59.0156C96.9375 58.8281 96.9844 58.5469 97.0781 58.1719C97.1719 57.7969 97.2812 57.3906 97.4062 56.9531C97.5312 56.5156 97.6406 56.0469 97.7344 55.5469C97.8281 55.0156 97.875 54.5156 97.875 54.0469C97.875 53.4531 97.8125 52.9531 97.6875 52.5469C97.3438 52.6719 97.0469 52.8594 96.7969 53.1094C96.5469 53.3281 96.3125 53.5938 96.0938 53.9062C95.9062 54.1875 95.7031 54.5 95.4844 54.8438C95.2969 55.1562 95.0938 55.4531 94.875 55.7344C94.75 55.8906 94.5312 56.0938 94.2188 56.3438C93.9062 56.5938 93.74781 56.8594 93.2344 57.1406C92.9219 57.4219 92.6406 57.7031 92.3906 57.9844C92.1406 58.2344 92.0156 58.4375 92.0156 58.5938C92.0156 58.6562 92.0312 58.7344 92.0625 58.8281C92.0938 58.9219 92.1094 59 92.1094 59.0625C92.1094 59.1562 92.0312 59.2969 91.875 59.4844C91.7188 59.6719 91.5469 59.875 91.3594 60.0938C91.2031 60.2812 91.0469 60.4688 90.8906 60.6562C90.7344 60.8125 90.6562 60.9219 90.6562 60.9844C90.625 61.3281 90.3594 61.6562 89.8594 61.9688C89.3594 62.25 88.9219 62.6094 88.5469 63.0469C88.2656 63.3594 88.0312 63.6875 87.8438 64.0312C87.6562 64.375 87.4844 64.6875 87.3281 64.9688C87.1719 65.25 87.0156 65.4844 86.8594 65.6719C86.7031 65.8281 86.5156 65.9062 86.2969 65.9062C86.2344 65.9062 86.125 65.8906 85.9688 65.8594C85.8438 65.8281 85.7344 65.8125 85.6406 65.8125C85.4219 65.8125 85.2812 65.9531 85.2188 66.2344C85.1875 66.5156 85.1406 66.7344 85.0781 66.8906C84.8281 67.2969 84.5312 67.6094 84.1875 67.8281C83.875 68.0156 83.4688 68.2969 82.9688 68.6719C82.75 68.8281 82.5938 69 82.5 69.1875C82.4375 69.4062 82.3438 69.5938 82.2188 69.75C82.0938 69.9062 81.8906 70.0312 81.6094 70.125C81.3594 70.25 80.9531 70.3125 80.3906 70.3125C80.0781 70.3125 79.7812 70.2812 79.5 70.2188C79.2188 70.1562 79.0781 70.0625 79.0781 69.9375C79.0781 69.875 79.0938 69.7969 79.125 69.7031C79.1562 69.6094 79.1719 69.5312 79.1719 69.4688C79.1719 69.4375 79.1094 69.375 78.9844 69.2812C78.8594 69.1875 78.7031 69.0469 78.5156 68.8594C78.3594 68.7031 78.2188 68.4844 78.0938 68.2031C77.9688 67.8906 77.9062 67.5156 77.9062 67.0781C77.9062 66.5781 77.9531 66.0625 78.0469 65.5312C78.1719 64.9688 78.2969 64.4219 78.4219 63.8906C78.5781 63.3594 78.7188 62.8594 78.8438 62.3906C78.9688 61.8906 79.0625 61.4219 79.125 60.9844C79.25 59.9531 79.3125 58.9062 79.3125 57.8438C79.3125 56.7812 79.4844 55.8281 79.8281 54.9844C79.9844 54.6719 80.1562 54.25 80.3438 53.7188C80.5312 53.1875 80.7031 52.5625 80.8594 51.8438C80.8906 51.6562 80.9375 51.3906 81 51.0469C81.0625 50.6719 81.1406 50.2656 81.2344 49.8281C81.3281 49.3906 81.4219 48.9531 81.5156 48.5156C81.6406 48.0469 81.7812 47.6406 81.9375 47.2969C82 47.2031 82.1094 47.0938 82.2656 46.9688C82.4531 46.8125 82.5781 46.6875 82.6406 46.5938C82.7031 46.4062 82.7344 46.2031 82.7344 45.9844C82.7656 45.7344 82.8438 45.4844 82.9688 45.2344C83.0312 45.1094 83.1562 44.9844 83.3438 44.8594C83.5312 44.7031 83.6406 44.5781 83.6719 44.4844C83.8281 44.2031 83.9375 43.8594 84 43.4531C84.0625 43.0469 84.1875 42.7031 84.375 42.4219C84.5 42.2344 84.7188 42.0781 85.0312 41.9531C85.3438 41.7969 85.5938 41.5938 85.7812 41.3438C85.9375 41.125 86.0469 40.8906 86.1094 40.6406C86.2031 40.3906 86.3125 40.1719 86.4375 39.9844C86.7812 39.6094 87.0625 39.2812 87.2812 39C87.5312 38.6875 87.75 38.4062 87.9375 38.1562C88.1562 37.9062 88.3594 37.6719 88.5469 37.4531C88.7344 37.2344 88.9688 37.0156 89.25 36.7969C89.4375 36.6719 89.6562 36.4375 89.9062 36.0938C90.1875 35.75 90.4375 35.5156 90.6562 35.3906C90.9062 35.2969 91.125 35.2188 91.3125 35.1562C91.5312 35.0938 91.7812 34.9531 92.0625 34.7344C92.125 34.6719 92.1875 34.5469 92.25 34.3594C92.3125 34.1406 92.375 34.0156 92.4375 33.9844C92.6562 33.8906 92.8594 33.8125 93.0469 33.75C93.2656 33.6875 93.74156 33.5312 93.7969 33.2812C94.1406 32.9688 94.4062 32.6562 94.5938 32.3438C94.7812 32.0312 95 31.7656 95.25 31.5469C95.5 31.3594 95.7812 31.2344 96.0938 31.1719C96.4062 31.1094 96.6875 31 96.9375 30.8438C97.4062 30.5938 97.875 30.2656 98.3438 29.8594C98.8438 29.4219 99.3594 29 99.8906 28.5938C100.422 28.1562 100.969 27.7969 101.531 27.5156C102.125 27.2031 102.734 27.0469 103.359 27.0469C103.766 27.0469 104.172 27.0156 104.578 26.9531C105.016 26.8594 105.422 26.8125 105.797 26.8125C106.141 26.8125 106.453 26.875 106.734 27C107.016 27.125 107.156 27.3906 107.156 27.7969C107.156 28.9844 107.016 30.3125 106.734 31.7812C106.453 33.25 106.141 34.8281 105.797 36.5156C105.484 38.2031 105.188 39.9844 104.906 41.8594C104.656 43.7344 104.531 45.6719 104.531 47.6719C104.531 47.7344 104.547 47.8281 104.578 47.9531C104.641 48.0781 104.672 48.2656 104.672 48.5156C104.672 48.7031 104.625 48.9375 104.531 49.2188C104.469 49.4688 104.391 49.7344 104.297 50.0156C104.203 50.2656 104.109 50.5156 104.016 50.7656C103.953 51.0156 103.922 51.2344 103.922 51.4219C103.922 51.7344 103.922 52.0469 103.922 52.3594C103.953 52.6719 103.969 52.9531 103.969 53.2031C103.969 53.7344 103.906 54.3281 103.781 54.9844C103.656 55.6406 103.5 56.3281 103.312 57.0469C103.156 57.7344 103.016 58.4219 102.891 59.1094C102.766 59.7969 102.703 60.4375 102.703 61.0312C102.703 61.3438 102.719 61.6406 102.75 61.9219C102.781 62.1719 102.844 62.4219 102.938 62.6719C103.344 62.4844 103.672 62.25 103.922 61.9688C104.203 61.6875 104.453 61.375 104.672 61.0312C104.922 60.6562 105.172 60.2656 105.422 59.8594C105.672 59.4219 106 58.9688 106.406 58.5C106.562 58.3125 106.781 58.0625 107.062 57.75C107.344 57.4375 107.641 57.1406 107.953 56.8594C108.266 56.5781 108.594 56.3281 108.938 56.1094C109.281 55.8906 109.609 55.7812 109.922 55.7812C110.141 55.7812 110.375 55.875 110.625 56.0625ZM99.75 31.9219C99.6562 31.9219 99.5625 31.9219 99.4688 31.9219C99.375 31.8906 99.2969 31.875 99.2344 31.875C98.7656 31.875 98.4062 32.0156 98.1562 32.2969C97.9375 32.5469 97.75 32.6719 97.5938 32.6719C97.5312 32.6719 97.4531 32.6719 97.3594 32.6719C97.2656 32.6406 97.1719 32.625 97.0781 32.625C96.9219 32.625 96.8438 32.7188 96.8438 32.9062C96.8438 33.0625 96.7656 33.1875 96.6094 33.2812C96.4844 33.4375 96.3125 33.5156 96.0938 33.5156C95.875 33.4844 95.7031 33.5312 95.5781 33.6562C95.4219 33.8125 95.2656 34.0625 95.1094 34.4062C94.9844 34.7188 94.7812 35.0469 94.5 35.3906C94.25 35.6719 93.9375 35.9219 93.74625 36.1406C93.2188 36.3594 92.9531 36.5781 92.7656 36.7969C92.7031 36.9219 92.6406 37.1094 92.5781 37.3594C92.5469 37.5781 92.5 37.75 92.4375 37.875C92.1875 38.3125 91.875 38.8438 91.5 39.4688C91.1562 40.0625 90.7812 40.6875 90.375 41.3438C89.9688 42 89.5625 42.6406 89.1562 43.2656C88.7812 43.8594 88.4688 44.3906 88.2188 44.8594C87.9688 45.2969 87.7969 45.8125 87.7031 46.4062C87.6094 47 87.5312 47.625 87.4688 48.2812C87.4375 48.9062 87.4062 49.5156 87.375 50.1094C87.3438 50.6719 87.2812 51.1406 87.1875 51.5156C86.5938 53.5781 86.0312 55.6562 85.5 57.75C85 59.8125 84.75 61.8125 84.75 63.75C85.4062 63.6562 85.9062 63.4062 86.25 63C86.625 62.5625 86.9219 62.0781 87.1406 61.5469C87.3594 61.0156 87.5625 60.5 87.75 60C87.9375 59.5 88.2031 59.125 88.5469 58.875C88.7969 58.7188 89.0469 58.5 89.2969 58.2188C89.5781 57.9375 89.8125 57.6719 90 57.4219C90.0938 57.2969 90.1406 57.1406 90.1406 56.9531C90.1406 56.7344 90.2031 56.5469 90.3281 56.3906C90.5156 56.1719 90.7344 55.9375 90.9844 55.6875C91.2656 55.4375 91.5469 55.1875 91.8281 54.9375C92.1094 54.6875 92.3594 54.4531 92.5781 54.2344C92.8281 53.9844 93.0156 53.7812 93.1406 53.625C93.2656 53.4688 93.3281 53.2344 93.3281 52.9219C93.3594 52.5781 93.4062 52.3281 93.4688 52.1719C93.7812 51.5781 94.125 51.0469 94.5 50.5781C94.875 50.0781 95.2344 49.5625 95.5781 49.0312C96.1406 48.1562 96.6094 47.2969 96.9844 46.4531C97.3906 45.6094 97.7344 44.75 98.0156 43.875C98.2969 43 98.5469 42.1094 98.7656 41.2031C98.9844 40.2656 99.2031 39.2656 99.4219 38.2031C99.5469 37.5781 99.6875 36.9062 99.8438 36.1875C100.031 35.4688 100.125 34.7344 100.125 33.9844C100.125 33.2031 100 32.5156 99.75 31.9219ZM129.094 30.1406C129.031 30.3906 128.875 30.8594 128.625 31.5469C128.375 32.2031 128.188 32.8906 128.062 33.6094C127.875 34.6719 127.797 35.7188 127.828 36.75C127.859 37.7812 127.828 38.7344 127.734 39.6094C127.578 40.7969 127.344 41.9531 127.031 43.0781C126.75 44.2031 126.516 45.3594 126.328 46.5469C126.141 47.6406 125.984 48.4531 125.859 48.9844C125.766 49.5156 125.672 49.9844 125.578 50.3906C125.516 50.7969 125.469 51.2344 125.438 51.7031C125.406 52.1719 125.391 52.8594 125.391 53.7656C125.391 54.1094 125.391 54.4219 125.391 54.7031C125.422 54.9531 125.438 55.2031 125.438 55.4531C125.438 55.8906 125.344 56.3125 125.156 56.7188C124.969 57.0938 124.875 57.5 124.875 57.9375C124.875 58.2812 124.906 58.6406 124.969 59.0156C125.031 59.3906 125.062 59.7656 125.062 60.1406C125.062 60.4844 125.016 60.75 124.922 60.9375C124.859 61.125 124.766 61.2656 124.641 61.3594C124.547 61.4531 124.438 61.5312 124.312 61.5938C124.219 61.625 124.125 61.7031 124.031 61.8281C123.906 62.0469 123.766 62.375 123.609 62.8125C123.484 63.2188 123.391 63.4688 123.328 63.5625C123.172 63.75 122.953 63.875 122.672 63.9375C122.391 64 122.141 64.1094 121.922 64.2656C121.453 64.6406 120.922 65.1719 120.328 65.8594C119.766 66.5156 119.203 67.1875 118.641 67.875C118.109 68.5312 117.609 69.0938 117.141 69.5625C116.672 70.0625 116.312 70.3125 116.062 70.3125C115.906 70.3125 115.781 70.2812 115.688 70.2188C115.625 70.1875 115.594 70.0625 115.594 69.8438C115.594 69.5625 115.672 69.3125 115.828 69.0938C115.984 68.875 116.156 68.6406 116.344 68.3906C116.562 68.1719 116.766 67.9375 116.953 67.6875C117.172 67.4062 117.328 67.0938 117.422 66.75V66.7031C117.422 66.0781 117.531 65.5781 117.75 65.2031C117.969 64.8281 118.078 64.5625 118.078 64.4062C118.078 64.2188 118.016 64.0938 117.891 64.0312C117.766 63.9688 117.703 63.8594 117.703 63.7031C117.703 63.5781 117.734 63.4062 117.797 63.1875C117.891 62.9375 117.984 62.6719 118.078 62.3906C118.172 62.1094 118.25 61.8281 118.312 61.5469C118.406 61.2656 118.453 61.0469 118.453 60.8906C118.453 60.5156 118.406 60.2031 118.312 59.9531C118.25 59.6719 118.219 59.375 118.219 59.0625C118.219 58.625 118.359 58.2188 118.641 57.8438C118.953 57.4688 119.109 57.1562 119.109 56.9062C119.078 56.7812 119.062 56.6562 119.062 56.5312C119.062 56.4062 119.062 56.2656 119.062 56.1094C119.062 55.3281 119.141 54.5625 119.297 53.8125C119.484 53.0625 119.688 52.3594 119.906 51.7031C120.125 51.0469 120.312 50.4531 120.469 49.9219C120.656 49.3906 120.75 48.9688 120.75 48.6562C120.75 48.5 120.734 48.3906 120.703 48.3281V48.1406C120.703 47.7969 120.641 47.4531 120.516 47.1094C120.422 46.7656 120.375 46.4219 120.375 46.0781C120.375 45.7656 120.469 45.4219 120.656 45.0469C120.875 44.6406 121.016 44.2188 121.078 43.7812C121.203 43.0625 121.266 42.2188 121.266 41.25C121.266 40.25 121.312 39.3438 121.406 38.5312C121.469 37.875 121.609 37.2656 121.828 36.7031C122.047 36.1406 122.156 35.8125 122.156 35.7188C122 35.4375 121.812 35.1875 121.594 34.9688C121.375 34.7188 121.188 34.5938 121.031 34.5938C120.781 34.5938 120.547 34.6875 120.328 34.875C120.109 35.0625 119.891 35.2969 119.672 35.5781C119.484 35.8281 119.297 36.1094 119.109 36.4219C118.922 36.7031 118.75 36.9375 118.594 37.125C118.344 37.4375 117.953 37.8438 117.422 38.3438C116.922 38.8438 116.5 39.2656 116.156 39.6094C115.938 39.8594 115.766 40.1719 115.641 40.5469C115.516 40.8906 115.234 41.0625 114.797 41.0625C114.672 41.0625 114.562 41.0469 114.469 41.0156C114.406 40.9531 114.375 40.8125 114.375 40.5938C114.375 40.3125 114.438 40.0469 114.562 39.7969C114.719 39.5156 114.891 39.25 115.078 39C115.266 38.7188 115.453 38.4688 115.641 38.25C115.859 38 116.031 37.75 116.156 37.5C116.406 37 116.812 36.3906 117.375 35.6719C117.938 34.9219 118.594 34.125 119.344 33.2812C120.125 32.4375 120.984 31.5781 121.922 30.7031C122.891 29.7969 123.891 28.9062 124.922 28.0312C125.234 27.7812 125.453 27.5781 125.578 27.4219C125.734 27.2656 125.859 27.1562 125.953 27.0938C126.047 27 126.141 26.9531 126.234 26.9531C126.328 26.9219 126.484 26.9062 126.703 26.9062C127.734 26.9062 128.422 27.0781 128.766 27.4219C129.109 27.7344 129.281 28.2031 129.281 28.8281C129.281 29.0156 129.266 29.2188 129.234 29.4375C129.203 29.6562 129.156 29.8906 129.094 30.1406ZM146.953 30.7969C146.922 30.9844 146.828 31.0781 146.672 31.0781H146.531C146.344 31.0781 146.25 31.1719 146.25 31.3594C146.25 31.4531 146.25 31.5469 146.25 31.6406C146.281 31.7031 146.297 31.7656 146.297 31.8281C146.297 31.9844 146.156 32.2969 145.875 32.7656C145.594 33.2344 145.188 33.7969 144.656 34.4531C144.156 35.0781 143.531 35.7344 142.781 36.4219C142.062 37.0781 141.25 37.6562 140.344 38.1562C139.844 38.4375 139.281 38.7656 138.656 39.1406C138.031 39.4844 137.328 39.6562 136.547 39.6562C136.484 39.6562 136.406 39.6562 136.312 39.6562C136.25 39.625 136.188 39.6094 136.125 39.6094C136.094 39.6094 135.953 39.5938 135.703 39.5625C135.453 39.5312 135.172 39.5 134.859 39.4688C134.578 39.4375 134.281 39.4062 133.969 39.375C133.656 39.3438 133.438 39.2969 133.312 39.2344C133.031 39.1406 132.719 38.8281 132.375 38.2969C132.031 37.7344 131.641 37.2344 131.203 36.7969C130.984 36.5781 130.75 36.3906 130.5 36.2344C130.25 36.0469 130.016 35.8594 129.797 35.6719C129.609 35.4844 129.438 35.2969 129.281 35.1094C129.156 34.8906 129.094 34.6562 129.094 34.4062C129.188 34.4062 129.438 34.1562 129.844 33.6562C130.281 33.125 130.75 32.5625 131.25 31.9688C131.781 31.3438 132.281 30.7656 132.75 30.2344C133.219 29.7031 133.531 29.4375 133.688 29.4375C133.812 29.4375 133.922 29.3438 134.016 29.1562C134.141 28.9688 134.25 28.7656 134.344 28.5469C134.438 28.2969 134.547 28.0625 134.672 27.8438C134.797 27.5938 134.938 27.4219 135.094 27.3281C135.5 27.3594 135.781 27.5625 135.938 27.9375C136.094 28.3125 136.203 28.7656 136.266 29.2969C136.328 29.8281 136.375 30.4219 136.406 31.0781C136.469 31.7031 136.594 32.2812 136.781 32.8125C136.969 33.3438 137.281 33.7969 137.719 34.1719C138.156 34.5156 138.797 34.6875 139.641 34.6875C139.828 34.6875 140 34.6719 140.156 34.6406C140.344 34.6094 140.531 34.5469 140.719 34.4531C140.906 34.3594 141.125 34.2188 141.375 34.0312C141.656 33.8438 142 33.5938 142.406 33.2812C142.781 33 143.109 32.6719 143.391 32.2969C143.703 31.8906 144 31.5 144.281 31.125C144.594 30.7188 144.938 30.3594 145.312 30.0469C145.688 29.7344 146.125 29.5312 146.625 29.4375C146.688 29.5625 146.766 29.7188 146.859 29.9062C146.953 30.0625 147 30.25 147 30.4688C147 30.5312 146.984 30.5938 146.953 30.6562C146.953 30.6875 146.953 30.7344 146.953 30.7969ZM173.156 25.8281C173.125 25.9219 173.109 26.0469 173.109 26.2031C173.109 26.3594 173.109 26.5 173.109 26.625C173.141 26.7188 173.156 26.8281 173.156 26.9531C173.156 27.2969 173.094 27.5625 172.969 27.75C172.844 27.9062 172.688 28.0312 172.5 28.125C172.312 28.2188 172.109 28.2969 171.891 28.3594C171.703 28.4219 171.547 28.5156 171.422 28.6406C171.328 28.7344 171.188 28.8906 171 29.1094C170.812 29.2969 170.609 29.5 170.391 29.7188C170.203 29.9375 170 30.1406 169.781 30.3281C169.594 30.5156 169.438 30.6562 169.312 30.75C168.969 30.9375 168.516 31.1094 167.953 31.2656C167.422 31.3906 166.938 31.5625 166.5 31.7812C166.062 32 165.703 32.2031 165.422 32.3906C165.141 32.5469 164.875 32.6875 164.625 32.8125C164.375 32.9375 164.078 33.0312 163.734 33.0938C163.391 33.1562 162.922 33.1875 162.328 33.1875C162.328 33.125 162.297 33.0469 162.234 32.9531C162.172 32.8594 162.109 32.8125 162.047 32.8125C162.016 32.8125 161.984 32.8281 161.953 32.8594C161.672 33.1719 161.344 33.3438 160.969 33.375C160.625 33.4062 160.281 33.5 159.938 33.6562C159.625 33.7812 159.344 34.0938 159.094 34.5938C158.875 35.0938 158.766 35.9688 158.766 37.2188C158.766 37.5312 158.781 37.8438 158.812 38.1562C158.844 38.4688 158.859 38.7812 158.859 39.0938C158.859 39.9375 158.781 40.875 158.625 41.9062C158.469 42.9062 158.297 43.9688 158.109 45.0938C157.922 46.1875 157.719 47.3281 157.5 48.5156C157.312 49.6719 157.172 50.8594 157.078 52.0781C156.922 53.8281 156.75 55.625 156.562 57.4688C156.406 59.3125 156.328 61.125 156.328 62.9062C157.141 62.6562 157.797 62.2188 158.297 61.5938C158.828 60.9375 159.359 60.3281 159.891 59.7656C160.172 59.4531 160.484 59.125 160.828 58.7812C161.203 58.4062 161.578 58.0312 161.953 57.6562C161.984 57.625 162.016 57.5469 162.047 57.4219C162.109 57.2656 162.172 57.1094 162.234 56.9531C162.328 56.7656 162.422 56.6094 162.516 56.4844C162.609 56.3281 162.703 56.25 162.797 56.25C162.859 56.25 162.938 56.2656 163.031 56.2969C163.125 56.3281 163.203 56.3438 163.266 56.3438C163.359 56.3438 163.453 56.2656 163.547 56.1094C163.641 55.9531 163.75 55.7812 163.875 55.5938C164.031 55.4062 164.203 55.2344 164.391 55.0781C164.578 54.9219 164.812 54.8438 165.094 54.8438C165.188 54.8438 165.266 54.8594 165.328 54.8906C165.422 54.8906 165.469 54.9688 165.469 55.125C165.469 55.5938 165.281 56 164.906 56.3438C164.562 56.6875 164.281 57.0156 164.062 57.3281C163.125 58.6719 162.078 60.0156 160.922 61.3594C159.797 62.7031 158.75 64.2656 157.781 66.0469C157.625 66.2656 157.5 66.4219 157.406 66.5156C157.312 66.6094 157.219 66.7031 157.125 66.7969C157.031 66.8594 156.891 66.9375 156.703 67.0312C156.547 67.125 156.312 67.2812 156 67.5C155.688 67.6875 155.422 67.9219 155.203 68.2031C154.984 68.4844 154.75 68.75 154.5 69C154.281 69.2812 154.016 69.5 153.703 69.6562C153.391 69.8438 153 69.9375 152.531 69.9375C152.281 69.9062 152 69.7344 151.688 69.4219C151.375 69.1094 151.078 68.7656 150.797 68.3906C150.547 67.9844 150.328 67.5781 150.141 67.1719C149.953 66.7656 149.859 66.4688 149.859 66.2812C149.859 66.0625 149.875 65.7188 149.906 65.25C149.969 64.75 150.047 64.1875 150.141 63.5625C150.234 62.9375 150.328 62.2812 150.422 61.5938C150.547 60.875 150.656 60.1562 150.75 59.4375C150.812 59.4375 150.891 59.4219 150.984 59.3906C151.078 59.3281 151.125 59.2656 151.125 59.2031C151.062 59.1094 151.016 59 150.984 58.875C150.891 58.6875 150.844 58.3906 150.844 57.9844C150.844 57.4844 150.891 56.8906 150.984 56.2031C151.078 55.4844 151.172 54.7812 151.266 54.0938C151.391 53.375 151.5 52.7188 151.594 52.125C151.719 51.5 151.797 51.0156 151.828 50.6719C151.859 50.1719 151.875 49.6875 151.875 49.2188C151.875 48.75 151.891 48.2812 151.922 47.8125C151.953 47.3438 152.016 46.8594 152.109 46.3594C152.203 45.8594 152.344 45.3125 152.531 44.7188C152.625 44.0938 152.672 43.4531 152.672 42.7969C152.703 42.1406 152.766 41.5 152.859 40.875C152.922 40.5625 153.031 40.2031 153.188 39.7969C153.344 39.3906 153.469 38.9375 153.562 38.4375C153.625 38.0938 153.672 37.7031 153.703 37.2656C153.734 36.7969 153.766 36.3594 153.797 35.9531C153.828 35.5469 153.844 35.2031 153.844 34.9219C153.875 34.6406 153.891 34.5156 153.891 34.5469C153.766 34.3594 153.391 34.2188 152.766 34.125C152.172 34.0312 151.531 33.9844 150.844 33.9844C149.844 33.9844 149.016 34.1094 148.359 34.3594C147.703 34.5781 147.219 35 146.906 35.625C146.812 35.8125 146.734 36.0156 146.672 36.2344C146.641 36.4531 146.578 36.6719 146.484 36.8906C146.422 37.0781 146.297 37.2344 146.109 37.3594C145.953 37.4844 145.688 37.5469 145.312 37.5469C145.125 37.5469 144.922 37.5156 144.703 37.4531C144.516 37.3906 144.422 37.2188 144.422 36.9375C144.422 36.5 144.531 36.125 144.75 35.8125C144.969 35.5 145.234 35.2031 145.547 34.9219C145.891 34.6406 146.25 34.375 146.625 34.125C147 33.8438 147.328 33.5312 147.609 33.1875C147.766 33.0312 147.828 32.8594 147.797 32.6719C147.766 32.4844 147.812 32.2969 147.938 32.1094C148 32.0156 148.109 31.9531 148.266 31.9219C148.453 31.8906 148.578 31.8438 148.641 31.7812C148.641 31.7812 148.75 31.5781 148.969 31.1719C149.188 30.7344 149.516 30.25 149.953 29.7188C150.391 29.1875 150.906 28.7031 151.5 28.2656C152.125 27.8281 152.812 27.6094 153.562 27.6094C153.625 27.6094 153.781 27.6875 154.031 27.8438C154.281 27.9688 154.5 28.0312 154.688 28.0312C155.031 28.0312 155.266 27.7812 155.391 27.2812C155.547 26.75 155.641 26.1406 155.672 25.4531C155.734 24.7656 155.766 24.0938 155.766 23.4375C155.797 22.75 155.875 22.2656 156 21.9844C156.188 21.5156 156.516 21 156.984 20.4375C157.484 19.875 157.969 19.3281 158.438 18.7969C158.875 18.2969 159.25 17.8438 159.562 17.4375C159.875 17.0312 160.188 16.6875 160.5 16.4062C160.812 16.0938 161.156 15.8438 161.531 15.6562C161.938 15.4688 162.438 15.3594 163.031 15.3281C162.844 15.6719 162.688 16.1094 162.562 16.6406C162.438 17.1719 162.312 17.7344 162.188 18.3281C162.094 18.8906 162 19.4688 161.906 20.0625C161.812 20.625 161.703 21.1406 161.578 21.6094V21.75C161.578 21.875 161.578 21.9844 161.578 22.0781C161.609 22.1719 161.625 22.2812 161.625 22.4062C161.625 22.5312 161.578 22.6719 161.484 22.8281C161.391 22.9844 161.281 23.2188 161.156 23.5312C161.062 23.8438 160.969 24.2656 160.875 24.7969C160.781 25.3281 160.734 26.0469 160.734 26.9531C160.734 27.3906 160.766 27.7344 160.828 27.9844C160.891 28.2031 161 28.375 161.156 28.5C161.344 28.5938 161.594 28.6562 161.906 28.6875C162.25 28.6875 162.688 28.6875 163.219 28.6875C165.188 28.6875 166.797 28.5156 168.047 28.1719C169.297 27.8281 170.188 27.3906 170.719 26.8594C170.844 26.7344 171.078 26.5 171.422 26.1562C171.797 25.7812 172.172 25.5938 172.547 25.5938C172.797 25.5938 173 25.6719 173.156 25.8281ZM187.969 56.7656C188.094 57.0469 188.156 57.3438 188.156 57.6562C188.156 57.9688 188.078 58.25 187.922 58.5C187.797 58.7188 187.625 58.9375 187.406 59.1562C187.219 59.3438 187 59.5312 186.75 59.7188C186.531 59.875 186.344 60.0469 186.188 60.2344C186.125 60.3594 186.078 60.5469 186.047 60.7969C186.047 61.0156 185.984 61.1875 185.859 61.3125C185.484 61.7188 185.016 62.0625 184.453 62.3438C183.922 62.625 183.453 62.9844 183.047 63.4219C182.797 63.7031 182.609 63.9844 182.484 64.2656C182.359 64.5156 182.078 64.8125 181.641 65.1562C181.297 65.4062 180.969 65.75 180.656 66.1875C180.344 66.625 180 67.0625 179.625 67.5C179.25 67.9062 178.812 68.2656 178.312 68.5781C177.812 68.9219 177.219 69.0938 176.531 69.0938C176.375 69.0938 176.234 69.0781 176.109 69.0469C175.984 69.0469 175.844 69.0312 175.688 69C175.688 69 175.578 68.9375 175.359 68.8125C175.141 68.6875 174.891 68.4375 174.609 68.0625C174.359 67.6875 174.125 67.1562 173.906 66.4688C173.688 65.7812 173.578 64.875 173.578 63.75C173.578 63.4688 173.625 63.1719 173.719 62.8594C173.844 62.5156 173.969 62.1875 174.094 61.875C174.25 61.5625 174.375 61.25 174.469 60.9375C174.594 60.5938 174.656 60.2812 174.656 60C174.656 59.7188 174.594 59.4531 174.469 59.2031C174.344 58.9531 174.281 58.6875 174.281 58.4062C174.281 58.125 174.406 57.9375 174.656 57.8438C174.906 57.7188 175.031 57.5 175.031 57.1875C175.031 57.0312 175.016 56.8906 174.984 56.7656C174.984 56.6406 174.984 56.5 174.984 56.3438C174.984 55.9688 175.047 55.7188 175.172 55.5938C175.297 55.4375 175.359 55.2344 175.359 54.9844C175.359 54.7656 175.312 54.6094 175.219 54.5156C175.156 54.3906 175.125 54.2344 175.125 54.0469C175.125 53.8281 175.203 53.625 175.359 53.4375C175.516 53.2188 175.625 52.9219 175.688 52.5469C175.906 51.8281 176.078 50.9844 176.203 50.0156C176.328 49.0156 176.469 47.9531 176.625 46.8281C176.812 45.6719 177.016 44.4531 177.234 43.1719C177.453 41.8594 177.766 40.5469 178.172 39.2344C178.297 38.7969 178.422 38.1719 178.547 37.3594C178.703 36.5156 178.797 35.6406 178.828 34.7344C178.672 34.6406 178.562 34.5938 178.5 34.5938C178.25 34.5938 178.062 34.7969 177.938 35.2031C177.844 35.6094 177.688 35.9062 177.469 36.0938C177.312 36.2188 177.125 36.2812 176.906 36.2812C176.719 36.2812 176.547 36.3281 176.391 36.4219C176.203 36.5781 176.047 36.7656 175.922 36.9844C175.828 37.1719 175.719 37.3594 175.594 37.5469C175.5 37.7344 175.359 37.9219 175.172 38.1094C174.984 38.2969 174.703 38.4375 174.328 38.5312C174.266 38.5625 174.234 38.6406 174.234 38.7656C174.234 38.8594 174.172 38.9062 174.047 38.9062H173.953C173.953 38.8125 173.875 38.7344 173.719 38.6719C173.594 38.5781 173.438 38.4844 173.25 38.3906C173.062 38.2969 172.891 38.1875 172.734 38.0625C172.609 37.9375 172.547 37.7812 172.547 37.5938C172.547 37.3125 172.609 37.0938 172.734 36.9375C172.859 36.7812 173.031 36.6562 173.25 36.5625C173.469 36.4688 173.688 36.375 173.906 36.2812C174.156 36.1562 174.406 35.9844 174.656 35.7656C174.969 35.4531 175.312 35.0938 175.688 34.6875C176.094 34.2812 176.5 33.875 176.906 33.4688C177.312 33.0312 177.734 32.625 178.172 32.25C178.641 31.8438 179.109 31.4844 179.578 31.1719C179.672 31.1094 179.688 31.0469 179.625 30.9844C179.594 30.9219 179.688 30.875 179.906 30.8438C180 30.8438 180.125 30.7969 180.281 30.7031C180.469 30.5781 180.641 30.4531 180.797 30.3281C180.984 30.1719 181.141 30.0469 181.266 29.9531C181.391 29.8281 181.469 29.7656 181.5 29.7656C181.562 29.7656 181.625 29.7812 181.688 29.8125C181.781 29.8125 181.859 29.8125 181.922 29.8125C182.172 29.8125 182.453 29.75 182.766 29.625C183.109 29.4688 183.719 29.3906 184.594 29.3906C184.938 29.3906 185.234 29.5 185.484 29.7188C185.766 29.9062 185.906 30.3125 185.906 30.9375C185.906 31.125 185.828 31.4219 185.672 31.8281C185.516 32.2344 185.344 32.7188 185.156 33.2812C184.969 33.8438 184.797 34.4688 184.641 35.1562C184.484 35.8438 184.406 36.5625 184.406 37.3125C184.406 37.625 184.422 37.9531 184.453 38.2969C184.484 38.6094 184.5 38.9219 184.5 39.2344C184.5 39.7969 184.391 40.2812 184.172 40.6875C183.984 41.0625 183.844 41.5156 183.75 42.0469C183.625 42.7031 183.562 43.3906 183.562 44.1094C183.562 44.8281 183.516 45.5469 183.422 46.2656C183.172 47.7656 182.875 49.2188 182.531 50.625C182.188 52.0312 181.891 53.4844 181.641 54.9844C181.547 55.4844 181.391 56.125 181.172 56.9062C180.984 57.6875 180.891 58.5156 180.891 59.3906C180.891 60.2031 181.031 60.9531 181.312 61.6406C181.781 61.6094 182.172 61.4688 182.484 61.2188C182.797 60.9688 183.078 60.6875 183.328 60.375C183.578 60.0625 183.812 59.7344 184.031 59.3906C184.281 59.0469 184.547 58.75 184.828 58.5C185.016 58.3438 185.281 58.2344 185.625 58.1719C186 58.0781 186.312 57.9531 186.562 57.7969C186.812 57.6406 186.984 57.4219 187.078 57.1406C187.172 56.8594 187.375 56.7188 187.688 56.7188C187.75 56.7188 187.797 56.7344 187.828 56.7656C187.859 56.7656 187.906 56.7656 187.969 56.7656ZM189.703 9.51562C189.797 9.70312 189.844 9.90625 189.844 10.125C189.844 10.5 189.719 10.9063 189.469 11.3438C189.219 11.7812 188.938 12.2031 188.625 12.6094C188.344 13.0156 188.062 13.3906 187.781 13.7344C187.5 14.0469 187.328 14.2656 187.266 14.3906C187.078 14.7969 186.922 15.3438 186.797 16.0312C186.703 16.7188 186.5 17.3438 186.188 17.9062C186.062 18.1562 185.953 18.3438 185.859 18.4688C185.766 18.5938 185.656 18.875 185.531 19.3125C185.406 19.5938 185.25 19.9219 185.062 20.2969C184.875 20.6719 184.672 21.0312 184.453 21.375C184.234 21.6875 184.016 21.9688 183.797 22.2188C183.578 22.4375 183.375 22.5469 183.188 22.5469C182.375 22.5469 181.812 22.1562 181.5 21.375C181.219 20.5625 181.078 19.6094 181.078 18.5156C181.078 18.0781 181.094 17.625 181.125 17.1562C181.188 16.6875 181.25 16.2344 181.312 15.7969C181.375 15.3281 181.531 14.9844 181.781 14.7656C182.031 14.5469 182.234 14.2031 182.391 13.7344C182.547 13.3281 182.656 12.9375 182.719 12.5625C182.781 12.1562 182.844 11.7812 182.906 11.4375C183 11.0938 183.094 10.7969 183.188 10.5469C183.312 10.2656 183.5 10.0312 183.75 9.84375C183.938 9.71875 184.156 9.60938 184.406 9.51562C184.688 9.42188 184.969 9.35938 185.25 9.32812C185.562 9.26563 185.859 9.21875 186.141 9.1875C186.453 9.15625 186.703 9.14062 186.891 9.14062C186.891 9.17188 187.031 9.125 187.312 9C187.594 8.84375 187.906 8.76562 188.25 8.76562C188.312 8.76562 188.516 8.82812 188.859 8.95312C189.234 9.04688 189.516 9.23438 189.703 9.51562ZM229.734 24.8906C229.797 25.0781 229.828 25.2188 229.828 25.3125C229.828 25.6562 229.672 25.9531 229.359 26.2031C229.078 26.4531 228.859 26.7188 228.703 27C228.484 27.3438 228.312 27.7188 228.188 28.125C228.094 28.5312 227.906 28.8594 227.625 29.1094C227.469 29.2656 227.234 29.3594 226.922 29.3906C226.641 29.4219 226.312 29.5469 225.938 29.7656C225.75 29.8594 225.562 30.0312 225.375 30.2812C225.188 30.5312 225.016 30.7031 224.859 30.7969C224.641 30.9531 224.406 31.0781 224.156 31.1719C223.906 31.2656 223.672 31.3906 223.453 31.5469C222.953 31.8594 222.469 32.2344 222 32.6719C221.531 33.1094 220.969 33.5469 220.312 33.9844C220.25 34.0469 220.109 34.1719 219.891 34.3594C219.703 34.5469 219.484 34.7656 219.234 35.0156C219.172 35.1094 219 35.25 218.719 35.4375C218.469 35.625 218.203 35.8438 217.922 36.0938C217.641 36.3125 217.375 36.5469 217.125 36.7969C216.906 37.0469 216.797 37.2812 216.797 37.5C216.797 37.6875 216.656 37.9531 216.375 38.2969C216.125 38.6094 215.812 38.9688 215.438 39.375C215.062 39.75 214.672 40.1406 214.266 40.5469C213.891 40.9531 213.578 41.3281 213.328 41.6719C213.141 41.9219 212.922 42.1875 212.672 42.4688C212.453 42.7188 212.219 43.0156 211.969 43.3594C211.75 43.7031 211.562 44.0781 211.406 44.4844C211.25 44.8594 211.172 45.2812 211.172 45.75C211.172 45.7812 211.188 46.1719 211.219 46.9219C211.25 47.6406 211.359 48.4531 211.547 49.3594C211.609 49.7344 211.766 50.1406 212.016 50.5781C212.297 50.9844 212.5 51.3906 212.625 51.7969C212.781 52.4219 212.859 53.0469 212.859 53.6719C212.891 54.2656 213.047 54.8281 213.328 55.3594C213.359 55.4219 213.406 55.4531 213.469 55.4531C213.531 55.4219 213.594 55.5 213.656 55.6875C213.781 56.1875 213.812 56.6094 213.75 56.9531C213.688 57.2969 213.781 57.6875 214.031 58.125C214.062 58.1875 214.125 58.2344 214.219 58.2656C214.344 58.2969 214.406 58.4219 214.406 58.6406C214.406 58.7031 214.391 58.7812 214.359 58.875C214.359 58.9375 214.359 59 214.359 59.0625V59.1562C214.359 59.2188 214.375 59.3906 214.406 59.6719C214.469 59.9531 214.531 60.2812 214.594 60.6562C214.656 61.0312 214.719 61.4062 214.781 61.7812C214.875 62.1562 214.969 62.4531 215.062 62.6719V62.7656C215.062 62.8281 215.047 62.9062 215.016 63C215.016 63.0938 215.016 63.1719 215.016 63.2344C215.016 63.3281 215.047 63.375 215.109 63.375H215.391C215.453 63.375 215.484 63.4531 215.484 63.6094C215.516 63.7656 215.547 63.9375 215.578 64.125C215.609 64.2812 215.656 64.4375 215.719 64.5938C215.781 64.75 215.906 64.8281 216.094 64.8281C216.531 64.8281 216.953 64.5938 217.359 64.125C217.766 63.6562 218.172 63.1719 218.578 62.6719C218.672 62.5469 218.734 62.4219 218.766 62.2969C218.828 62.1719 218.891 62.0312 218.953 61.875C219.016 61.7188 219.109 61.5469 219.234 61.3594C219.391 61.1406 219.625 60.8906 219.938 60.6094C220.031 60.5156 220.156 60.4531 220.312 60.4219C220.5 60.3594 220.625 60.2969 220.688 60.2344C220.969 59.8594 221.188 59.4688 221.344 59.0625C221.5 58.625 221.688 58.2188 221.906 57.8438C222.156 57.4688 222.469 57.1562 222.844 56.9062C223.25 56.625 223.797 56.4531 224.484 56.3906C224.547 56.5469 224.625 56.6719 224.719 56.7656C224.812 56.8281 224.859 56.9375 224.859 57.0938C224.859 57.375 224.781 57.6719 224.625 57.9844C224.469 58.2969 224.281 58.6094 224.062 58.9219C223.844 59.2031 223.609 59.4688 223.359 59.7188C223.109 59.9375 222.906 60.1094 222.75 60.2344C222.094 60.7344 221.375 61.5312 220.594 62.625C219.844 63.6875 219.062 64.7656 218.25 65.8594C218.031 66.1406 217.844 66.4375 217.688 66.75C217.531 67.0625 217.359 67.3281 217.172 67.5469C217.016 67.7031 216.844 67.7812 216.656 67.7812C216.469 67.75 216.297 67.7969 216.141 67.9219C216.078 67.9531 215.969 68.0625 215.812 68.25C215.688 68.4375 215.547 68.6406 215.391 68.8594C215.234 69.0781 215.078 69.2656 214.922 69.4219C214.766 69.6094 214.641 69.7031 214.547 69.7031C214.484 69.7031 214.406 69.6875 214.312 69.6562C214.25 69.6562 214.188 69.6562 214.125 69.6562C214.031 69.6562 213.906 69.7344 213.75 69.8906C213.625 70.0469 213.453 70.2188 213.234 70.4062C213.047 70.625 212.828 70.8125 212.578 70.9688C212.359 71.125 212.125 71.2031 211.875 71.2031C211.406 71.2031 211.031 70.9688 210.75 70.5C210.469 70.0625 210.156 69.5625 209.812 69V68.9062C209.812 68.8438 209.812 68.7656 209.812 68.6719C209.844 68.5781 209.859 68.5 209.859 68.4375C209.859 68.4062 209.844 68.3906 209.812 68.3906C209.812 68.3906 209.812 68.375 209.812 68.3438V68.2969C209.562 68.1094 209.469 67.875 209.531 67.5938C209.594 67.2812 209.562 66.8125 209.438 66.1875C209.344 65.6562 209.172 65.125 208.922 64.5938C208.672 64.0312 208.5 63.5156 208.406 63.0469C208.25 62.3594 208.172 61.7188 208.172 61.125C208.203 60.5312 208.172 60 208.078 59.5312C208.016 59.1875 207.906 58.8438 207.75 58.5C207.594 58.1562 207.469 57.7969 207.375 57.4219C207.281 57.1094 207.203 56.7812 207.141 56.4375C207.109 56.0938 207.062 55.75 207 55.4062C207.062 55.4062 207.141 55.3594 207.234 55.2656C207.328 55.1719 207.375 55.0781 207.375 54.9844L207.188 54.8906C207.062 54.8281 207 54.7344 207 54.6094C207 54.5469 206.984 54.3594 206.953 54.0469C206.922 53.7344 206.875 53.4219 206.812 53.1094C206.781 52.7656 206.703 52.4688 206.578 52.2188C206.484 51.9375 206.375 51.7969 206.25 51.7969C206.125 51.7969 205.953 51.9219 205.734 52.1719C205.547 52.3906 205.344 52.6406 205.125 52.9219C204.906 53.2031 204.703 53.4844 204.516 53.7656C204.359 54.0156 204.25 54.1875 204.188 54.2812C203.625 55.0938 203.031 56.0312 202.406 57.0938C201.781 58.125 201.219 59.0469 200.719 59.8594C200.375 60.4219 199.984 60.9375 199.547 61.4062C199.141 61.8438 198.938 62.2812 198.938 62.7188C198.938 62.7812 198.938 62.8594 198.938 62.9531C198.969 63.0469 198.984 63.125 198.984 63.1875C198.984 63.3125 198.922 63.4062 198.797 63.4688C198.703 63.5 198.578 63.5469 198.422 63.6094C198.297 63.6406 198.156 63.7031 198 63.7969C197.844 63.8594 197.703 63.9531 197.578 64.0781C197.328 64.3906 197.172 64.625 197.109 64.7812C197.047 64.9375 197 65.0938 196.969 65.25C196.969 65.4062 196.938 65.5938 196.875 65.8125C196.812 66.0312 196.656 66.3438 196.406 66.75C196.156 67.1562 195.766 67.7031 195.234 68.3906C194.703 69.1094 193.969 70.0156 193.031 71.1094C192.875 71.2344 192.656 71.3438 192.375 71.4375C192.125 71.5625 192 71.7969 192 72.1406C192 72.1719 191.938 72.25 191.812 72.375C191.688 72.5 191.547 72.625 191.391 72.75C191.234 72.9062 191.078 73.0625 190.922 73.2188C190.766 73.375 190.641 73.4844 190.547 73.5469C190.047 74.0156 189.516 74.5312 188.953 75.0938C188.391 75.6875 187.766 76.2188 187.078 76.6875C186.984 76.75 186.953 76.8125 186.984 76.875C187.016 76.9688 186.938 77.0156 186.75 77.0156C186.562 77.0156 186.391 77.0938 186.234 77.25C186.047 77.4062 185.859 77.5781 185.672 77.7656C185.484 77.9531 185.281 78.1094 185.062 78.2344C184.812 78.3906 184.547 78.4688 184.266 78.4688C183.922 78.4688 183.609 78.3594 183.328 78.1406C183.047 77.9219 182.906 77.6406 182.906 77.2969C182.906 76.7031 183.062 76.2031 183.375 75.7969C183.688 75.3906 184.094 75.0312 184.594 74.7188C185.062 74.4062 185.578 74.0938 186.141 73.7812C186.703 73.5 187.25 73.1719 187.781 72.7969C188.406 72.3281 189.062 71.75 189.75 71.0625C190.469 70.4062 191.156 69.6875 191.812 68.9062C192.469 68.1562 193.078 67.3906 193.641 66.6094C194.234 65.8281 194.734 65.0938 195.141 64.4062C195.234 64.2812 195.391 64.1094 195.609 63.8906C195.859 63.6719 196.109 63.4531 196.359 63.2344C196.609 63.0156 196.828 62.8125 197.016 62.625C197.203 62.4062 197.297 62.2188 197.297 62.0625C197.297 61.9375 197.281 61.8125 197.25 61.6875C197.219 61.5312 197.203 61.375 197.203 61.2188C197.203 60.9688 197.359 60.7188 197.672 60.4688C198.016 60.1875 198.328 59.875 198.609 59.5312C198.734 59.375 198.797 59.2031 198.797 59.0156C198.797 58.8281 198.844 58.6562 198.938 58.5C199.125 58.2188 199.375 57.9688 199.688 57.75C200 57.5312 200.234 57.2969 200.391 57.0469C200.516 56.8906 200.562 56.7188 200.531 56.5312C200.531 56.3438 200.594 56.1719 200.719 56.0156C200.906 55.7344 201.266 55.3281 201.797 54.7969C202.328 54.2344 202.781 53.5938 203.156 52.875C203.281 52.6562 203.328 52.4688 203.297 52.3125C203.297 52.1562 203.375 51.9844 203.531 51.7969C204 51.0469 204.469 50.4062 204.938 49.875C205.406 49.3438 205.641 48.8594 205.641 48.4219C205.641 48.0781 205.578 47.625 205.453 47.0625C205.328 46.4688 205.172 45.8438 204.984 45.1875C204.828 44.5 204.641 43.7969 204.422 43.0781C204.234 42.3281 204.047 41.625 203.859 40.9688C203.672 40.3438 203.5 39.6875 203.344 39C203.188 38.2812 203.016 37.6562 202.828 37.125C202.766 37.0312 202.672 36.8438 202.547 36.5625C202.422 36.25 202.25 35.9375 202.031 35.625C201.812 35.3125 201.547 35.0469 201.234 34.8281C200.922 34.5781 200.547 34.4531 200.109 34.4531C199.578 34.4531 199.203 34.5312 198.984 34.6875C198.797 34.8438 198.641 35.0469 198.516 35.2969C198.422 35.5156 198.312 35.7656 198.188 36.0469C198.094 36.3281 197.891 36.5781 197.578 36.7969C197.391 36.9219 197.234 37 197.109 37.0312C197.016 37.0312 196.938 37.0469 196.875 37.0781C196.812 37.0781 196.75 37.125 196.688 37.2188C196.625 37.3125 196.562 37.5156 196.5 37.8281C196.375 38.3281 196.125 38.7031 195.75 38.9531C195.406 39.1719 195.078 39.5 194.766 39.9375C194.672 40.0312 194.578 40.2188 194.484 40.5C194.422 40.75 194.328 41.0156 194.203 41.2969C194.109 41.5781 193.969 41.8281 193.781 42.0469C193.625 42.2344 193.406 42.3281 193.125 42.3281C192.938 42.3281 192.688 42.25 192.375 42.0938C192.094 41.9375 191.953 41.7188 191.953 41.4375C191.953 41.125 192.141 40.6719 192.516 40.0781C192.922 39.4844 193.391 38.8594 193.922 38.2031C194.453 37.5469 194.984 36.9062 195.516 36.2812C196.078 35.625 196.531 35.0938 196.875 34.6875C197.156 34.3438 197.484 33.8438 197.859 33.1875C198.266 32.5312 198.75 31.9844 199.312 31.5469C199.562 31.3594 199.828 31.2031 200.109 31.0781C200.391 30.9219 200.703 30.7188 201.047 30.4688C201.172 30.375 201.359 30.2344 201.609 30.0469C201.859 29.8594 202.141 29.6719 202.453 29.4844C202.797 29.2656 203.156 29.0781 203.531 28.9219C203.906 28.7656 204.297 28.6875 204.703 28.6875C205.453 28.6875 205.984 28.9688 206.297 29.5312C206.609 30.0625 206.969 30.7344 207.375 31.5469C207.438 31.6719 207.547 31.7969 207.703 31.9219C207.891 32.0469 208.016 32.1562 208.078 32.25C208.141 32.4688 208.172 32.8125 208.172 33.2812C208.203 33.75 208.281 34.2188 208.406 34.6875C208.5 35.125 208.609 35.7188 208.734 36.4688C208.891 37.2188 209.062 37.9531 209.25 38.6719C209.438 39.3906 209.641 40.0312 209.859 40.5938C210.109 41.125 210.375 41.3906 210.656 41.3906C210.969 41.3906 211.391 41.1406 211.922 40.6406C212.047 40.5156 212.109 40.3438 212.109 40.125C212.109 39.875 212.156 39.7031 212.25 39.6094C212.344 39.5156 212.469 39.4531 212.625 39.4219C212.781 39.3906 212.906 39.3281 213 39.2344C213.094 39.0781 213.141 38.9375 213.141 38.8125C213.172 38.6875 213.219 38.5625 213.281 38.4375C213.344 38.2812 213.469 38.1094 213.656 37.9219C213.875 37.7031 214.219 37.4375 214.688 37.125C214.75 37.0625 214.875 37.0156 215.062 36.9844C215.25 36.9219 215.375 36.8594 215.438 36.7969C215.688 36.4531 215.812 36.0469 215.812 35.5781C215.812 35.1094 215.922 34.7031 216.141 34.3594C216.234 34.2344 216.406 34.0312 216.656 33.75C216.906 33.4688 217.188 33.1875 217.5 32.9062C217.812 32.5938 218.125 32.2812 218.438 31.9688C218.75 31.6562 219.016 31.3906 219.234 31.1719C219.484 30.8906 219.734 30.5938 219.984 30.2812C220.234 29.9688 220.469 29.6875 220.688 29.4375C220.719 29.375 220.828 29.3125 221.016 29.25C221.203 29.1875 221.312 29.1406 221.344 29.1094C221.438 28.8906 221.516 28.6562 221.578 28.4062C221.641 28.1562 221.797 27.9062 222.047 27.6562C222.203 27.5312 222.438 27.375 222.75 27.1875C223.062 26.9688 223.391 26.7656 223.734 26.5781C224.078 26.3594 224.422 26.1719 224.766 26.0156C225.109 25.8281 225.375 25.6719 225.562 25.5469C225.906 25.3594 226.328 25.2031 226.828 25.0781C227.328 24.9219 227.922 24.8281 228.609 24.7969C228.797 24.7969 228.984 24.8125 229.172 24.8438C229.359 24.8438 229.547 24.8594 229.734 24.8906Z" fill="white"/>
</svg>
